<?xml version="1.0" encoding="utf-8"?>
<!-- Generator: Adobe Illustrator 21.0.2, SVG Export Plug-In . SVG Version: 6.00 Build 0)  -->
<svg version="1.1" id="Layer_1" xmlns="http://www.w3.org/2000/svg" xmlns:xlink="http://www.w3.org/1999/xlink" x="0px" y="0px"
	 viewBox="0 0 55.2 41.6" style="enable-background:new 0 0 55.2 41.6;" xml:space="preserve">
<style type="text/css">
	.st0{fill:#FF428D;}
	.st1{fill:#F2EEF3;}
	.st2{fill:#DDDCE6;}
	.st3{clip-path:url(#XMLID_2_);fill:#C6C6CF;}
	.st4{clip-path:url(#XMLID_2_);fill:#3E322E;}
	.st5{clip-path:url(#XMLID_2_);fill:#A5918C;}
	.st6{fill:#846963;}
	.st7{fill:#BCDBFD;}
	.st8{fill:#E0F4FE;}
	.st9{fill:#59C36A;}
	.st10{fill:#00A66C;}
	.st11{fill:#97DE3D;}
</style>
<g id="XMLID_211_">
	<path id="XMLID_407_" class="st0" d="M3,22c-0.3,0.1-0.5-0.1-0.6-0.4c-0.1-0.3,0.1-0.5,0.4-0.6l4-1c0.1,0,0.3,0,0.4,0.1
		s0.2,0.2,0.2,0.3l1,4C8.5,24.7,8.3,25,8.1,25c-0.3,0.1-0.5-0.1-0.6-0.4l-0.7-2.9l-5.8,9.8c-0.1,0.2-0.4,0.3-0.7,0.2
		s-0.3-0.4-0.2-0.7l5.8-9.8L3,22z"/>
	<g id="XMLID_209_">
		<path id="XMLID_403_" class="st1" d="M26,6.3c-0.3-0.5-0.8-0.7-1.3-0.7c-0.5,0-1.1,0.2-1.3,0.7l-5.8,11.3l2.8,2.4H29l2.8-2.4
			L26,6.3z M26,6.3"/>
		<path id="XMLID_399_" class="st2" d="M31.9,17.7L26,6.3c-0.3-0.5-0.8-0.7-1.3-0.7V20H29L31.9,17.7z M31.9,17.7"/>
		<g id="XMLID_388_">
			<defs>
				<rect id="XMLID_389_" x="5.7" y="0.8" width="49.5" height="40.8"/>
			</defs>
			<clipPath id="XMLID_2_">
				<use xlink:href="#XMLID_389_"  style="overflow:visible;"/>
			</clipPath>
			<path id="XMLID_396_" class="st3" d="M40.5,15.9c-0.5-0.8-2.1-0.8-2.6,0l-3.7,6.2l0.5,2.7l5.4,2.4l5.9-2.4L40.5,15.9z M40.5,15.9
				"/>
			<path id="XMLID_393_" class="st4" d="M44.3,41.6h9.5c0.5,0,1-0.2,1.2-0.6c0.3-0.4,0.3-0.8,0.1-1.2l-9.2-15.1H34.7l2.6,14.4
				L44.3,41.6z M44.3,41.6"/>
			<path id="XMLID_390_" class="st5" d="M34.2,22.1l-2.3-4.4H17.5L5.8,40c-0.2,0.4-0.1,0.8,0.1,1.1c0.3,0.3,0.7,0.5,1.2,0.5h13.2
				l1.5-2.4l1.5,2.4h21.1L34.2,22.1z M34.2,22.1"/>
		</g>
		<path id="XMLID_385_" class="st6" d="M44.3,41.6L34.2,22.1l-2.3-4.4h-7.2v24H44.3z M44.3,41.6"/>
		<path id="XMLID_382_" class="st7" d="M52.3,2.9h-5.9c0-1.6-1.3-2.9-2.9-2.9h-8.7c-1.6,0-2.9,1.3-2.9,2.9c0,1.6,1.3,2.9,2.9,2.9
			h2.9c0,1.6,1.3,2.9,2.9,2.9h11.7c1.6,0,2.9-1.3,2.9-2.9C55.2,4.2,53.9,2.9,52.3,2.9L52.3,2.9z M52.3,2.9"/>
		<path id="XMLID_379_" class="st8" d="M23.2,9.6h-2.9c0-1.6-1.3-2.9-2.9-2.9H8.6C7,6.7,5.7,8,5.7,9.6s1.3,2.9,2.9,2.9h3
			c0,1.6,1.3,2.9,2.9,2.9h8.7c1.6,0,2.9-1.3,2.9-2.9S24.8,9.6,23.2,9.6L23.2,9.6z M23.2,9.6"/>
		<path id="XMLID_376_" class="st9" d="M21.8,34.4h-1.5v7.3h2.9v-7.3H21.8z M21.8,34.4"/>
		<rect id="XMLID_375_" x="21.8" y="34.4" class="st10" width="1.5" height="7.3"/>
		<path id="XMLID_372_" class="st11" d="M28.9,35.1l-5.8-9.6c-0.2-0.4-0.8-0.6-1.3-0.6c-0.5,0-1.1,0.2-1.3,0.6l-5.8,9.6
			c-0.2,0.4-0.2,0.8,0.1,1.2c0.3,0.4,0.7,0.6,1.2,0.6h11.6c0.5,0,1-0.2,1.2-0.6C29.1,35.9,29.1,35.4,28.9,35.1L28.9,35.1z
			 M28.9,35.1"/>
		<path id="XMLID_369_" class="st9" d="M29,36.1c0.3-0.4,0.3-0.8,0-1.2l-6.2-9.4c-0.3-0.4-0.8-0.6-1.3-0.6L22,36.9l5.8-0.1
			C28.3,36.7,28.8,36.5,29,36.1L29,36.1z M29,36.1"/>
	</g>
</g>
</svg>
