<?xml version="1.0" encoding="utf-8"?>
<!-- Generator: Adobe Illustrator 21.0.2, SVG Export Plug-In . SVG Version: 6.00 Build 0)  -->
<svg version="1.1" id="Layer_1" xmlns="http://www.w3.org/2000/svg" xmlns:xlink="http://www.w3.org/1999/xlink" x="0px" y="0px"
	 viewBox="0 0 37 36.7" style="enable-background:new 0 0 37 36.7;" xml:space="preserve">
<style type="text/css">
	.st0{clip-path:url(#SVGID_2_);fill:url(#SVGID_3_);}
	.st1{fill:url(#SVGID_4_);}
</style>
<g>
	<g>
		<defs>
			<rect id="SVGID_1_" width="37" height="36.7"/>
		</defs>
		<clipPath id="SVGID_2_">
			<use xlink:href="#SVGID_1_"  style="overflow:visible;"/>
		</clipPath>
		<linearGradient id="SVGID_3_" gradientUnits="userSpaceOnUse" x1="9.705554e-02" y1="18.3607" x2="36.8717" y2="18.3607">
			<stop  offset="0" style="stop-color:#FFAE46"/>
			<stop  offset="0.1898" style="stop-color:#FF9755"/>
			<stop  offset="0.7388" style="stop-color:#FF5A7D"/>
			<stop  offset="1" style="stop-color:#FF428D"/>
		</linearGradient>
		<path class="st0" d="M35.2,19.3h-1c-0.9-2.5-2.5-4.5-4.8-5.9V9.6c0-0.3-0.3-0.6-0.6-0.6c-1,0-2,0.3-2.9,0.8
			c0.5-2.1,0.1-4.4-1.1-6.2c-1.2-1.8-3.2-3-5.4-3.3C17.2-0.1,15,0.5,13.4,2c-1.7,1.5-2.6,3.6-2.6,5.8c0,1.7,0.5,3.3,1.5,4.6
			c-3.8,1.2-6.7,4.4-7.5,8.3c0,0-0.1-0.1-0.1-0.1c0-0.8-0.2-1.6-0.7-2.2c-0.8-1.1-2-1.7-3.3-1.7C-0.1,16.8,0,18,0.7,17.9
			c0.9,0,1.7,0.5,2.2,1.2c0.2,0.2,0.3,0.5,0.4,0.8c-0.2,0-0.5,0-0.7,0c-1.1,0.2-1.5,0.9-1.5,1.5c0,0.7,0.6,1.3,1.4,1.4
			c0,0,0.1,0,0.1,0c0.7,0,1.3-0.4,1.6-1c0.1,0.2,0.2,0.3,0.3,0.5c0,0.2,0,0.3,0,0.5c0,3.6,1.7,6.9,4.6,9c1.3,1,2.1,2.5,2.1,4.2
			c0,0.3,0.3,0.6,0.6,0.6h5.6c0.3,0,0.6-0.3,0.6-0.6v-2.1h3.3V36c0,0.3,0.3,0.6,0.6,0.6h5.6c0.3,0,0.6-0.3,0.6-0.6
			c0-1.7,0.8-3.3,2.2-4.2c1.8-1.3,3.2-3.2,3.9-5.3h1c0.9,0,1.6-0.7,1.6-1.6V21C36.9,20.1,36.1,19.3,35.2,19.3L35.2,19.3z M3.2,21.2
			c-0.1,0.3-0.3,0.4-0.6,0.5c-0.1,0-0.2-0.1-0.2-0.2c0-0.2,0.4-0.3,0.5-0.3c0,0,0.1,0,0.1,0C3.1,21.1,3.2,21.2,3.2,21.2
			C3.2,21.2,3.2,21.2,3.2,21.2L3.2,21.2z M18.5,1.3c2.4,0,4.6,1.3,5.7,3.4c1.1,2.1,1,4.7-0.3,6.7c-0.2,0.2-0.3,0.4-0.5,0.6
			c-0.7,0.8-1.5,1.3-2.4,1.7c-0.8-0.1-1.5-0.2-2.3-0.2c0.2-0.1,0.4-0.3,0.4-0.6v-0.8c1.1-0.3,1.9-1.3,1.9-2.4s-0.8-2.2-1.9-2.4V4.7
			c0.4,0.2,0.7,0.7,0.7,1.1c0,0.8,1.2,0.8,1.2,0c0-1.2-0.8-2.2-1.9-2.4V2.6c0-0.8-1.2-0.8-1.2,0v0.8C16.8,3.7,16,4.7,16,5.9
			C16,7,16.8,8,17.9,8.3v2.5c-0.4-0.2-0.7-0.7-0.7-1.1c0-0.8-1.2-0.8-1.2,0c0,1.2,0.8,2.2,1.9,2.4V13c0,0.2,0.1,0.4,0.3,0.5
			c-0.8,0-1.6,0.1-2.4,0.2c-2.8-1.2-4.4-4.3-3.7-7.3C12.8,3.4,15.4,1.3,18.5,1.3L18.5,1.3z M19.8,9.7c0,0.5-0.3,0.9-0.7,1.1V8.6
			C19.5,8.8,19.8,9.2,19.8,9.7L19.8,9.7z M17.9,7c-0.4-0.2-0.7-0.7-0.7-1.1c0-0.5,0.3-0.9,0.7-1.1V7z M35.7,24.9
			c0,0.2-0.2,0.4-0.4,0.4h-1.4c-0.3,0-0.5,0.2-0.6,0.4c-0.6,2-1.9,3.8-3.6,5.1c-1.5,1.1-2.5,2.8-2.7,4.6h-4.4v-2.1
			c0-0.3-0.3-0.6-0.6-0.6h-4.5c-0.3,0-0.6,0.3-0.6,0.6v2.1h-4.4c-0.2-1.8-1.1-3.5-2.6-4.5c-3.1-2.2-4.6-6-3.9-9.8
			c0.7-3.8,3.5-6.7,7.3-7.7c0.3,0.3,0.6,0.5,0.9,0.8c-0.7,0.2-1.3,0.6-1.9,1c-0.3,0.2-0.3,0.6-0.1,0.9c0.2,0.3,0.6,0.3,0.9,0.1
			c1.1-0.9,3.1-1.4,5.3-1.4c2.2,0,4.3,0.5,5.3,1.4c0.3,0.2,0.6,0.2,0.9-0.1c0.2-0.3,0.2-0.6-0.1-0.9c-0.5-0.4-1.1-0.7-1.7-0.9
			c0.5-0.3,1-0.8,1.5-1.2c0.1,0,0.1-0.1,0.2-0.2c0,0,0,0,0-0.1c0.2-0.2,0.3-0.4,0.5-0.6c0.9-1,2.1-1.8,3.4-2v3.6
			c0,0.2,0.1,0.4,0.3,0.5c2.2,1.2,3.9,3.3,4.6,5.8c0.1,0.3,0.3,0.4,0.6,0.4h1.4c0.2,0,0.4,0.2,0.4,0.4V24.9z M35.7,24.9"/>
	</g>
	<linearGradient id="SVGID_4_" gradientUnits="userSpaceOnUse" x1="25.9508" y1="20.3249" x2="30.0264" y2="20.3249">
		<stop  offset="0" style="stop-color:#FFAE46"/>
		<stop  offset="0.1898" style="stop-color:#FF9755"/>
		<stop  offset="0.7388" style="stop-color:#FF5A7D"/>
		<stop  offset="1" style="stop-color:#FF428D"/>
	</linearGradient>
	<path class="st1" d="M29.4,19c-0.3,0-0.6,0.3-0.6,0.6c0,0.5-0.4,0.8-0.8,0.8c-0.5,0-0.8-0.4-0.8-0.8c0-0.8-1.2-0.8-1.2,0
		c0,0.5,0.2,1.1,0.6,1.4c0.4,0.4,0.9,0.6,1.4,0.6c0.5,0,1.1-0.2,1.4-0.6c0.4-0.4,0.6-0.9,0.6-1.4C30,19.3,29.8,19,29.4,19L29.4,19z
		 M29.4,19"/>
</g>
</svg>
