<?xml version="1.0" encoding="utf-8"?>
<!-- Generator: Adobe Illustrator 21.0.2, SVG Export Plug-In . SVG Version: 6.00 Build 0)  -->
<svg version="1.1" id="Layer_1" xmlns="http://www.w3.org/2000/svg" xmlns:xlink="http://www.w3.org/1999/xlink" x="0px" y="0px"
	 viewBox="0 0 34.2 34.2" style="enable-background:new 0 0 34.2 34.2;" xml:space="preserve">
<style type="text/css">
	.st0{fill:#FF428D;}
	.st1{fill:#C5324F;}
	.st2{fill:#FFFFFF;}
</style>
<g id="XMLID_236_">
	<g id="XMLID_226_">
		<path id="XMLID_257_" class="st0" d="M29.4,0c-1.4,0-4,0-6.5,0c-1.4,0-2.8,0.6-3.7,1.6L1.7,19c-2.2,2.2-2.2,5.8,0,8.1l5.4,5.4
			c2.2,2.2,5.8,2.2,8.1,0l17.5-17.5c1-1,1.6-2.3,1.6-3.7c0-2.5,0-5.1,0-6.5c0-1.3-0.6-2.5-1.4-3.4C31.9,0.6,30.7,0,29.4,0z M31,4.8
			c0,0.9-0.7,1.6-1.6,1.6c-0.9,0-1.6-0.7-1.6-1.6s0.7-1.6,1.6-1.6C30.2,3.2,31,3.9,31,4.8z"/>
		<path id="XMLID_256_" class="st1" d="M32.7,1.4c-0.6-0.6-1.4-1.1-2.2-1.3c-0.6,1-0.4,2.3,0.4,3.1c0.4,0.4,0.7,1,0.7,1.6
			c0,0.9,0,2.2,0,3.8c0,0.9,0,1.8,0,2.7c0,0.7-0.3,1.4-0.8,1.9L13.3,30.7c-1.2,1.2-3.2,1.2-4.4,0l-5.4-5.4c-0.9-0.9-2.2-1-3.2-0.4
			c0.3,0.8,0.7,1.5,1.4,2.2l5.4,5.4c2.2,2.2,5.8,2.2,8.1,0l17.5-17.5c1-1,1.6-2.3,1.6-3.7c0-2.5,0-5.1,0-6.5
			C34.2,3.5,33.6,2.3,32.7,1.4z"/>
		<g id="XMLID_242_">
			<path id="XMLID_253_" class="st2" d="M11.9,25.1l-4.5-4.5l2.2-2.2c1-1,2.2-0.9,3-0.1c0.8,0.8,0.9,2-0.1,3l-1.1,1.1l1.5,1.5
				L11.9,25.1z M11.5,19.5c-0.3-0.3-0.7-0.3-1,0.1l-0.9,0.9l1,1l0.9-0.9C11.8,20.2,11.8,19.8,11.5,19.5z"/>
			<path id="XMLID_248_" class="st2" d="M18.7,18.3l-2.2-0.7l-0.6,0.6l1.5,1.5l-1.2,1.2l-4.5-4.5l2.2-2.2c1-1,2.2-0.9,3-0.1
				c0.8,0.8,0.7,1.7,0.4,2.2L20,17L18.7,18.3z M15.8,15.2c-0.3-0.3-0.7-0.2-1,0.1l-0.9,0.9l1,1l0.9-0.9
				C16.1,15.9,16.1,15.5,15.8,15.2z"/>
			<path id="XMLID_246_" class="st2" d="M20.6,16.4l-4.5-4.5l1.2-1.2l4.5,4.5L20.6,16.4z"/>
			<path id="XMLID_243_" class="st2" d="M25.4,11.6l-2.5-0.5l0.5,2.5l-1.4,1.4L21.4,11l-3.6-0.7L19.1,9l2.3,0.5l-0.5-2.3l1.4-1.4
				l0.7,3.6l3.8,0.7L25.4,11.6z"/>
		</g>
	</g>
</g>
</svg>
