<?xml version="1.0" encoding="utf-8"?>
<!-- Generator: Adobe Illustrator 21.0.2, SVG Export Plug-In . SVG Version: 6.00 Build 0)  -->
<svg version="1.1" id="Layer_1" xmlns="http://www.w3.org/2000/svg" xmlns:xlink="http://www.w3.org/1999/xlink" x="0px" y="0px"
	 viewBox="0 0 35 35" style="enable-background:new 0 0 35 35;" xml:space="preserve">
<style type="text/css">
	.st0{fill:url(#SVGID_1_);}
	.st1{fill:url(#SVGID_2_);}
	.st2{fill:url(#SVGID_3_);}
	.st3{fill:url(#SVGID_4_);}
	.st4{fill:url(#SVGID_5_);}
	.st5{fill:url(#SVGID_6_);}
	.st6{fill:url(#SVGID_7_);}
	.st7{fill:url(#SVGID_8_);}
	.st8{fill:url(#SVGID_9_);}
	.st9{fill:url(#SVGID_10_);}
</style>
<g>
	<linearGradient id="SVGID_1_" gradientUnits="userSpaceOnUse" x1="0" y1="17.5" x2="35" y2="17.5">
		<stop  offset="0" style="stop-color:#FFAE46"/>
		<stop  offset="0.1898" style="stop-color:#FF9755"/>
		<stop  offset="0.7388" style="stop-color:#FF5A7D"/>
		<stop  offset="1" style="stop-color:#FF428D"/>
	</linearGradient>
	<path class="st0" d="M17.5,0C7.9,0,0,7.9,0,17.5C0,27.1,7.9,35,17.5,35C27.1,35,35,27.1,35,17.5C35,7.9,27.1,0,17.5,0L17.5,0z
		 M17.5,33.8c-9,0-16.3-7.3-16.3-16.3c0-9,7.3-16.3,16.3-16.3c9,0,16.3,7.3,16.3,16.3C33.8,26.5,26.5,33.8,17.5,33.8L17.5,33.8z
		 M17.5,33.8"/>
	<linearGradient id="SVGID_2_" gradientUnits="userSpaceOnUse" x1="10.4985" y1="14.2202" x2="19.8326" y2="14.2202">
		<stop  offset="0" style="stop-color:#FFAE46"/>
		<stop  offset="0.1898" style="stop-color:#FF9755"/>
		<stop  offset="0.7388" style="stop-color:#FF5A7D"/>
		<stop  offset="1" style="stop-color:#FF428D"/>
	</linearGradient>
	<path class="st1" d="M18.1,15.2V9.3c0-0.3-0.3-0.6-0.6-0.6s-0.6,0.3-0.6,0.6v5.9c-0.8,0.2-1.5,0.9-1.7,1.7h-4.2
		c-0.3,0-0.6,0.3-0.6,0.6c0,0.3,0.3,0.6,0.6,0.6h4.2c0.3,1,1.2,1.7,2.3,1.7c1.3,0,2.3-1,2.3-2.3C19.8,16.3,19.1,15.4,18.1,15.2
		L18.1,15.2z M17.5,18.6c-0.6,0-1.2-0.5-1.2-1.2c0-0.6,0.5-1.2,1.2-1.2c0.6,0,1.2,0.5,1.2,1.2C18.7,18.1,18.1,18.6,17.5,18.6
		L17.5,18.6z M17.5,18.6"/>
	<linearGradient id="SVGID_3_" gradientUnits="userSpaceOnUse" x1="16.9159" y1="4.8876" x2="18.084" y2="4.8876">
		<stop  offset="0" style="stop-color:#FFAE46"/>
		<stop  offset="0.1898" style="stop-color:#FF9755"/>
		<stop  offset="0.7388" style="stop-color:#FF5A7D"/>
		<stop  offset="1" style="stop-color:#FF428D"/>
	</linearGradient>
	<path class="st2" d="M17.5,5.8c0.3,0,0.6-0.3,0.6-0.6V4.6c0-0.3-0.3-0.6-0.6-0.6s-0.6,0.3-0.6,0.6v0.6C16.9,5.5,17.2,5.8,17.5,5.8
		L17.5,5.8z M17.5,5.8"/>
	<linearGradient id="SVGID_4_" gradientUnits="userSpaceOnUse" x1="16.9159" y1="29.9713" x2="18.084" y2="29.9713">
		<stop  offset="0" style="stop-color:#FFAE46"/>
		<stop  offset="0.1898" style="stop-color:#FF9755"/>
		<stop  offset="0.7388" style="stop-color:#FF5A7D"/>
		<stop  offset="1" style="stop-color:#FF428D"/>
	</linearGradient>
	<path class="st3" d="M17.5,29.1c-0.3,0-0.6,0.3-0.6,0.6v0.6c0,0.3,0.3,0.6,0.6,0.6s0.6-0.3,0.6-0.6v-0.6
		C18.1,29.4,17.8,29.1,17.5,29.1L17.5,29.1z M17.5,29.1"/>
	<linearGradient id="SVGID_5_" gradientUnits="userSpaceOnUse" x1="29.1666" y1="17.4289" x2="30.9152" y2="17.4289">
		<stop  offset="0" style="stop-color:#FFAE46"/>
		<stop  offset="0.1898" style="stop-color:#FF9755"/>
		<stop  offset="0.7388" style="stop-color:#FF5A7D"/>
		<stop  offset="1" style="stop-color:#FF428D"/>
	</linearGradient>
	<path class="st4" d="M30.3,16.8h-0.6c-0.3,0-0.6,0.3-0.6,0.6c0,0.3,0.3,0.6,0.6,0.6h0.6c0.3,0,0.6-0.3,0.6-0.6
		C30.9,17.1,30.7,16.8,30.3,16.8L30.3,16.8z M30.3,16.8"/>
	<linearGradient id="SVGID_6_" gradientUnits="userSpaceOnUse" x1="4.0848" y1="17.4289" x2="5.8333" y2="17.4289">
		<stop  offset="0" style="stop-color:#FFAE46"/>
		<stop  offset="0.1898" style="stop-color:#FF9755"/>
		<stop  offset="0.7388" style="stop-color:#FF5A7D"/>
		<stop  offset="1" style="stop-color:#FF428D"/>
	</linearGradient>
	<path class="st5" d="M5.2,16.8H4.7c-0.3,0-0.6,0.3-0.6,0.6c0,0.3,0.3,0.6,0.6,0.6h0.6c0.3,0,0.6-0.3,0.6-0.6
		C5.8,17.1,5.6,16.8,5.2,16.8L5.2,16.8z M5.2,16.8"/>
	<linearGradient id="SVGID_7_" gradientUnits="userSpaceOnUse" x1="25.5777" y1="8.5605" x2="27.1585" y2="8.5605">
		<stop  offset="0" style="stop-color:#FFAE46"/>
		<stop  offset="0.1898" style="stop-color:#FF9755"/>
		<stop  offset="0.7388" style="stop-color:#FF5A7D"/>
		<stop  offset="1" style="stop-color:#FF428D"/>
	</linearGradient>
	<path class="st6" d="M26.2,7.9l-0.4,0.4c-0.2,0.2-0.2,0.6,0,0.8c0.1,0.1,0.3,0.2,0.4,0.2c0.2,0,0.3-0.1,0.4-0.2L27,8.8
		c0.2-0.2,0.2-0.6,0-0.8C26.8,7.7,26.4,7.7,26.2,7.9L26.2,7.9z M26.2,7.9"/>
	<linearGradient id="SVGID_8_" gradientUnits="userSpaceOnUse" x1="7.8414" y1="26.2977" x2="9.4223" y2="26.2977">
		<stop  offset="0" style="stop-color:#FFAE46"/>
		<stop  offset="0.1898" style="stop-color:#FF9755"/>
		<stop  offset="0.7388" style="stop-color:#FF5A7D"/>
		<stop  offset="1" style="stop-color:#FF428D"/>
	</linearGradient>
	<path class="st7" d="M8.4,25.7L8,26.1c-0.2,0.2-0.2,0.6,0,0.8c0.1,0.1,0.3,0.2,0.4,0.2c0.2,0,0.3-0.1,0.4-0.2l0.4-0.4
		c0.2-0.2,0.2-0.6,0-0.8C9,25.4,8.7,25.5,8.4,25.7L8.4,25.7z M8.4,25.7"/>
	<linearGradient id="SVGID_9_" gradientUnits="userSpaceOnUse" x1="25.5777" y1="26.2971" x2="27.1585" y2="26.2971">
		<stop  offset="0" style="stop-color:#FFAE46"/>
		<stop  offset="0.1898" style="stop-color:#FF9755"/>
		<stop  offset="0.7388" style="stop-color:#FF5A7D"/>
		<stop  offset="1" style="stop-color:#FF428D"/>
	</linearGradient>
	<path class="st8" d="M26.6,25.7c-0.2-0.2-0.6-0.2-0.8,0c-0.2,0.2-0.2,0.6,0,0.8l0.4,0.4c0.1,0.1,0.3,0.2,0.4,0.2
		c0.1,0,0.3-0.1,0.4-0.2c0.2-0.2,0.2-0.6,0-0.8L26.6,25.7z M26.6,25.7"/>
	<linearGradient id="SVGID_10_" gradientUnits="userSpaceOnUse" x1="7.8414" y1="8.5605" x2="9.4223" y2="8.5605">
		<stop  offset="0" style="stop-color:#FFAE46"/>
		<stop  offset="0.1898" style="stop-color:#FF9755"/>
		<stop  offset="0.7388" style="stop-color:#FF5A7D"/>
		<stop  offset="1" style="stop-color:#FF428D"/>
	</linearGradient>
	<path class="st9" d="M8.8,7.9C8.6,7.7,8.2,7.7,8,7.9C7.8,8.2,7.8,8.5,8,8.8l0.4,0.4c0.1,0.1,0.3,0.2,0.4,0.2c0.1,0,0.3-0.1,0.4-0.2
		c0.2-0.2,0.2-0.6,0-0.8L8.8,7.9z M8.8,7.9"/>
</g>
</svg>
