<?xml version="1.0" encoding="utf-8"?>
<!-- Generator: Adobe Illustrator 21.0.2, SVG Export Plug-In . SVG Version: 6.00 Build 0)  -->
<svg version="1.1" id="Layer_1" xmlns="http://www.w3.org/2000/svg" xmlns:xlink="http://www.w3.org/1999/xlink" x="0px" y="0px"
	 viewBox="0 0 30.4 34" style="enable-background:new 0 0 30.4 34;" xml:space="preserve">
<style type="text/css">
	.st0{clip-path:url(#SVGID_2_);fill:url(#SVGID_3_);}
	.st1{fill:url(#SVGID_4_);}
	.st2{fill:url(#SVGID_5_);}
	.st3{fill:url(#SVGID_6_);}
	.st4{fill:url(#SVGID_7_);}
	.st5{fill:url(#SVGID_8_);}
</style>
<g>
	<g>
		<defs>
			<rect id="SVGID_1_" width="30.4" height="34"/>
		</defs>
		<clipPath id="SVGID_2_">
			<use xlink:href="#SVGID_1_"  style="overflow:visible;"/>
		</clipPath>
		<linearGradient id="SVGID_3_" gradientUnits="userSpaceOnUse" x1="0" y1="16.9724" x2="30.4259" y2="16.9724">
			<stop  offset="0" style="stop-color:#FFAE46"/>
			<stop  offset="0.1898" style="stop-color:#FF9755"/>
			<stop  offset="0.7388" style="stop-color:#FF5A7D"/>
			<stop  offset="1" style="stop-color:#FF428D"/>
		</linearGradient>
		<path class="st0" d="M28.1,0H2.3C1,0,0,1,0,2.3v27c0,1.3,1,2.3,2.3,2.3h0v1.2c0,0.6,0.5,1.1,1.1,1.1h1.2c0.6,0,1.1-0.5,1.1-1.1
			v-1.2h18.8v1.2c0,0.6,0.5,1.1,1.1,1.1h1.2c0.6,0,1.1-0.5,1.1-1.1v-1.2h0c1.3,0,2.3-1,2.3-2.3v-27C30.4,1,29.4,0,28.1,0L28.1,0z
			 M2.3,1.1h25.8c0.7,0,1.2,0.5,1.2,1.2v5.9H1.1V2.3C1.1,1.6,1.6,1.1,2.3,1.1L2.3,1.1z M4.7,32.8C4.7,32.8,4.7,32.8,4.7,32.8l-1.2,0
			c0,0,0,0,0,0v-1.2h1.2V32.8z M27,32.8C27,32.8,27,32.8,27,32.8l-1.2,0c0,0,0,0,0,0v-1.2H27V32.8z M28.1,30.5H2.3
			c-0.7,0-1.2-0.5-1.2-1.2v-20h28.2v20C29.3,30,28.8,30.5,28.1,30.5L28.1,30.5z M28.1,30.5"/>
	</g>
	<linearGradient id="SVGID_4_" gradientUnits="userSpaceOnUse" x1="12.3168" y1="4.6556" x2="18.1091" y2="4.6556">
		<stop  offset="0" style="stop-color:#FFAE46"/>
		<stop  offset="0.1898" style="stop-color:#FF9755"/>
		<stop  offset="0.7388" style="stop-color:#FF5A7D"/>
		<stop  offset="1" style="stop-color:#FF428D"/>
	</linearGradient>
	<path class="st1" d="M12.9,5.2H13c0.2,1,1.2,1.8,2.2,1.8s2-0.8,2.2-1.8h0.1c0.3,0,0.5-0.2,0.5-0.5c0-0.3-0.2-0.5-0.5-0.5h-0.1
		c-0.2-1-1.2-1.8-2.2-1.8s-2,0.8-2.2,1.8h-0.1c-0.3,0-0.5,0.2-0.5,0.5C12.3,5,12.6,5.2,12.9,5.2L12.9,5.2z M15.2,5.9
		c-0.5,0-0.9-0.3-1.1-0.7h2.2C16.1,5.6,15.7,5.9,15.2,5.9L15.2,5.9z M15.2,3.4c0.5,0,0.9,0.3,1.1,0.7h-2.2
		C14.3,3.7,14.7,3.4,15.2,3.4L15.2,3.4z M15.2,3.4"/>
	<linearGradient id="SVGID_5_" gradientUnits="userSpaceOnUse" x1="20.5299" y1="4.6557" x2="25.1457" y2="4.6557">
		<stop  offset="0" style="stop-color:#FFAE46"/>
		<stop  offset="0.1898" style="stop-color:#FF9755"/>
		<stop  offset="0.7388" style="stop-color:#FF5A7D"/>
		<stop  offset="1" style="stop-color:#FF428D"/>
	</linearGradient>
	<path class="st2" d="M20.8,5.9c-0.2,0.2-0.2,0.6,0,0.8c0.1,0.1,0.2,0.2,0.4,0.2c0.1,0,0.3-0.1,0.4-0.2l0.1-0.1
		C22,6.9,22.4,7,22.8,7c0.6,0,1.2-0.2,1.6-0.7c0.8-0.8,0.9-1.9,0.3-2.8l0.1-0.1c0.2-0.2,0.2-0.6,0-0.8c-0.2-0.2-0.6-0.2-0.8,0
		L24,2.7C23.1,2.1,22,2.3,21.2,3C20.4,3.8,20.3,5,20.8,5.9L20.8,5.9z M23.7,5.5c-0.3,0.3-0.8,0.4-1.2,0.3L24,4.3
		C24.1,4.7,24,5.2,23.7,5.5L23.7,5.5z M22,3.8c0.2-0.2,0.5-0.4,0.9-0.4c0.1,0,0.3,0,0.4,0.1L21.7,5C21.6,4.6,21.7,4.1,22,3.8L22,3.8
		z M22,3.8"/>
	<linearGradient id="SVGID_6_" gradientUnits="userSpaceOnUse" x1="5.2801" y1="4.6557" x2="9.8962" y2="4.6557">
		<stop  offset="0" style="stop-color:#FFAE46"/>
		<stop  offset="0.1898" style="stop-color:#FF9755"/>
		<stop  offset="0.7388" style="stop-color:#FF5A7D"/>
		<stop  offset="1" style="stop-color:#FF428D"/>
	</linearGradient>
	<path class="st3" d="M6,6.3C6.4,6.7,7,7,7.6,7C8,7,8.4,6.9,8.8,6.6l0.1,0.1C9,6.8,9.1,6.9,9.2,6.9c0.1,0,0.3-0.1,0.4-0.2
		c0.2-0.2,0.2-0.6,0-0.8L9.6,5.9C10.1,5,10,3.8,9.2,3C8.5,2.3,7.3,2.1,6.4,2.7L6.3,2.6c-0.2-0.2-0.6-0.2-0.8,0
		c-0.2,0.2-0.2,0.6,0,0.8l0.1,0.1C5.1,4.3,5.2,5.5,6,6.3L6,6.3z M6.7,5.5C6.4,5.2,6.3,4.7,6.4,4.3L8,5.8C7.5,5.9,7.1,5.8,6.7,5.5
		L6.7,5.5z M7.6,3.4c0.3,0,0.6,0.1,0.9,0.4C8.8,4.1,8.9,4.6,8.7,5L7.2,3.5C7.3,3.5,7.5,3.4,7.6,3.4L7.6,3.4z M7.6,3.4"/>
	<linearGradient id="SVGID_7_" gradientUnits="userSpaceOnUse" x1="3.519" y1="19.905" x2="26.9069" y2="19.905">
		<stop  offset="0" style="stop-color:#FFAE46"/>
		<stop  offset="0.1898" style="stop-color:#FF9755"/>
		<stop  offset="0.7388" style="stop-color:#FF5A7D"/>
		<stop  offset="1" style="stop-color:#FF428D"/>
	</linearGradient>
	<path class="st4" d="M25.2,11.7H5.2c-1,0-1.7,0.8-1.7,1.7v12.9c0,0.9,0.8,1.7,1.7,1.7h19.9c1,0,1.7-0.8,1.7-1.7V13.5
		C26.9,12.5,26.1,11.7,25.2,11.7L25.2,11.7z M25.8,26.4c0,0.3-0.3,0.6-0.6,0.6H5.2c-0.3,0-0.6-0.3-0.6-0.6V13.5
		c0-0.3,0.3-0.6,0.6-0.6h19.9c0.3,0,0.6,0.3,0.6,0.6V26.4z M25.8,26.4"/>
	<linearGradient id="SVGID_8_" gradientUnits="userSpaceOnUse" x1="9.971" y1="15.5063" x2="20.4549" y2="15.5063">
		<stop  offset="0" style="stop-color:#FFAE46"/>
		<stop  offset="0.1898" style="stop-color:#FF9755"/>
		<stop  offset="0.7388" style="stop-color:#FF5A7D"/>
		<stop  offset="1" style="stop-color:#FF428D"/>
	</linearGradient>
	<path class="st5" d="M19.9,14.1h-9.4c-0.3,0-0.5,0.2-0.5,0.5v0.6c0,1,0.8,1.7,1.7,1.7h7c1,0,1.7-0.8,1.7-1.7v-0.6
		C20.5,14.3,20.2,14.1,19.9,14.1L19.9,14.1z M19.4,15.2c0,0.3-0.3,0.6-0.6,0.6h-7c-0.3,0-0.6-0.3-0.6-0.6v0L19.4,15.2L19.4,15.2z
		 M19.4,15.2"/>
</g>
</svg>
