<?xml version="1.0" encoding="utf-8"?>
<!-- Generator: Adobe Illustrator 21.0.2, SVG Export Plug-In . SVG Version: 6.00 Build 0)  -->
<svg version="1.1" id="Layer_1" xmlns="http://www.w3.org/2000/svg" xmlns:xlink="http://www.w3.org/1999/xlink" x="0px" y="0px"
	 viewBox="0 0 29.7 35" style="enable-background:new 0 0 29.7 35;" xml:space="preserve">
<style type="text/css">
	.st0{clip-path:url(#SVGID_2_);fill:url(#SVGID_3_);}
	.st1{clip-path:url(#SVGID_2_);fill:url(#SVGID_4_);}
</style>
<g>
	<g>
		<defs>
			<rect id="SVGID_1_" width="29.7" height="35"/>
		</defs>
		<clipPath id="SVGID_2_">
			<use xlink:href="#SVGID_1_"  style="overflow:visible;"/>
		</clipPath>
		<linearGradient id="SVGID_3_" gradientUnits="userSpaceOnUse" x1="7.2923" y1="9.4431" x2="22.3475" y2="9.4431">
			<stop  offset="0" style="stop-color:#FFAE46"/>
			<stop  offset="0.1898" style="stop-color:#FF9755"/>
			<stop  offset="0.7388" style="stop-color:#FF5A7D"/>
			<stop  offset="1" style="stop-color:#FF428D"/>
		</linearGradient>
		<path class="st0" d="M14.7,18.8h0.2c2.1,0,3.8-0.8,5.1-2.2c2.8-3.1,2.3-8.5,2.3-9c-0.2-3.8-2-5.7-3.5-6.5c-1.1-0.6-2.4-1-3.9-1
			h-0.1c-0.8,0-2.4,0.1-3.9,1C9.4,1.9,7.5,3.7,7.4,7.6c-0.1,0.5-0.5,5.9,2.3,9C10.9,18.1,12.6,18.8,14.7,18.8L14.7,18.8z M9.3,7.8
			C9.3,7.8,9.3,7.8,9.3,7.8C9.5,2.6,13.2,2,14.8,2h0.1c1.9,0,5.3,0.8,5.5,5.7c0,0,0,0,0,0.1c0,0.1,0.5,5-1.8,7.5
			c-0.9,1-2.1,1.5-3.7,1.5h-0.1c-1.6,0-2.8-0.5-3.7-1.5C8.8,12.8,9.3,7.8,9.3,7.8L9.3,7.8z M9.3,7.8"/>
		<linearGradient id="SVGID_4_" gradientUnits="userSpaceOnUse" x1="5.363282e-05" y1="26.84" x2="29.6543" y2="26.84">
			<stop  offset="0" style="stop-color:#FFAE46"/>
			<stop  offset="0.1898" style="stop-color:#FF9755"/>
			<stop  offset="0.7388" style="stop-color:#FF5A7D"/>
			<stop  offset="1" style="stop-color:#FF428D"/>
		</linearGradient>
		<path class="st1" d="M29.7,27.7L29.7,27.7c0-0.1,0-0.1,0-0.2c0-1.4-0.1-4.8-3.3-5.8c0,0-0.1,0-0.1,0c-3.3-0.8-6-2.7-6-2.7
			c-0.4-0.3-1-0.2-1.4,0.2c-0.3,0.4-0.2,1,0.2,1.4c0.1,0.1,3,2.1,6.6,3c1.7,0.6,1.9,2.4,1.9,4c0,0.1,0,0.1,0,0.2
			c0,0.6,0,1.7-0.2,2.2c-1.2,0.7-5.8,3-12.7,3c-6.9,0-11.6-2.3-12.7-3c-0.1-0.6-0.2-1.6-0.2-2.2c0-0.1,0-0.1,0-0.2
			c0.1-1.6,0.2-3.4,1.9-4c3.6-0.9,6.5-2.9,6.6-3c0.4-0.3,0.5-0.9,0.2-1.4c-0.3-0.4-0.9-0.5-1.4-0.2c0,0-2.7,1.9-6,2.7
			c0,0-0.1,0-0.1,0c-3.1,1.1-3.2,4.4-3.3,5.8c0,0.1,0,0.1,0,0.2v0C0,28.1,0,30,0.4,31c0.1,0.2,0.2,0.3,0.4,0.5
			c0.2,0.1,5.4,3.5,14.1,3.5s13.9-3.3,14.1-3.5c0.2-0.1,0.3-0.3,0.4-0.5C29.7,30,29.7,28.1,29.7,27.7L29.7,27.7z M29.7,27.7"/>
	</g>
</g>
</svg>
