<?xml version="1.0" encoding="utf-8"?>
<!-- Generator: Adobe Illustrator 21.0.2, SVG Export Plug-In . SVG Version: 6.00 Build 0)  -->
<svg version="1.1" id="Layer_1" xmlns="http://www.w3.org/2000/svg" xmlns:xlink="http://www.w3.org/1999/xlink" x="0px" y="0px"
	 viewBox="0 0 35 35" style="enable-background:new 0 0 35 35;" xml:space="preserve">
<style type="text/css">
	.st0{fill:#353535;}
</style>
<g id="XMLID_1277_">
	<g>
		<path id="XMLID_30_" class="st0" d="M17.5,0C7.9,0,0,7.9,0,17.5S7.9,35,17.5,35C27.1,35,35,27.1,35,17.5S27.1,0,17.5,0L17.5,0z
			 M25.9,18.8h-7.1v7.4c0,0.7-0.6,1.3-1.3,1.3c-0.7,0-1.3-0.6-1.3-1.3v-7.4H9.1c-0.7,0-1.3-0.6-1.3-1.3s0.6-1.3,1.3-1.3h7.1V9.4
			c0-0.7,0.6-1.3,1.3-1.3c0.7,0,1.3,0.6,1.3,1.3v6.7h7.1c0.7,0,1.3,0.6,1.3,1.3S26.7,18.8,25.9,18.8L25.9,18.8z M25.9,18.8"/>
	</g>
</g>
</svg>
