<?xml version="1.0" encoding="utf-8"?>
<!-- Generator: Adobe Illustrator 21.0.2, SVG Export Plug-In . SVG Version: 6.00 Build 0)  -->
<svg version="1.1" id="Layer_1" xmlns="http://www.w3.org/2000/svg" xmlns:xlink="http://www.w3.org/1999/xlink" x="0px" y="0px"
	 viewBox="0 0 22 28.9" style="enable-background:new 0 0 22 28.9;" xml:space="preserve">
<style type="text/css">
	.st0{fill:#F5EFEB;}
	.st1{fill:#DFD1CC;}
	.st2{fill:#FFDA2D;}
	.st3{fill:#FF9100;}
	.st4{fill:#C1C1C1;}
	.st5{fill:#474F54;}
</style>
<g id="XMLID_711_">
	<path id="XMLID_747_" class="st0" d="M20.4,7.7V0.8H1.7v6.9c0,3.1,2.1,5.8,5.1,6.6v1.3c-3,0.8-5.1,3.5-5.1,6.6v5.9h18.7v-5.9
		c0-3.1-2.1-5.8-5.1-6.6v-1.3C18.2,13.5,20.4,10.8,20.4,7.7L20.4,7.7z M20.4,7.7"/>
	<path id="XMLID_740_" class="st1" d="M15.3,14.3v1.3c3,0.8,5.1,3.5,5.1,6.6v5.9H11V0.8h9.3v6.9C20.4,10.8,18.2,13.5,15.3,14.3
		L15.3,14.3z M15.3,14.3"/>
	<path id="XMLID_730_" class="st2" d="M13.6,11.1c1.9,0,3.4-1.5,3.4-3.4V6.9H5.1v0.8c0,1.9,1.5,3.4,3.4,3.4c0.9,0,1.7,0.8,1.7,1.7
		v4.2c0,0.9-0.8,1.7-1.7,1.7c-1.9,0-3.4,1.5-3.4,3.4v3.4H17v-3.4c0-1.9-1.5-3.4-3.4-3.4c-0.9,0-1.7-0.8-1.7-1.7v-4.2
		C11.9,11.9,12.6,11.1,13.6,11.1L13.6,11.1z M13.6,11.1"/>
	<path id="XMLID_722_" class="st3" d="M11.9,12.8v4.2c0,0.9,0.8,1.7,1.7,1.7c1.9,0,3.4,1.5,3.4,3.4v3.4H11V6.9H17v0.8
		c0,1.9-1.5,3.4-3.4,3.4C12.6,11.1,11.9,11.9,11.9,12.8L11.9,12.8z M11.9,12.8"/>
	<rect id="XMLID_538_" class="st4" width="22" height="1.7"/>
	<rect id="XMLID_537_" x="11" class="st5" width="11" height="1.7"/>
	<rect id="XMLID_536_" y="27.2" class="st4" width="22" height="1.7"/>
	<rect id="XMLID_528_" x="11" y="27.2" class="st5" width="11" height="1.7"/>
</g>
</svg>
