<?xml version="1.0" encoding="utf-8"?>
<!-- Generator: Adobe Illustrator 21.0.2, SVG Export Plug-In . SVG Version: 6.00 Build 0)  -->
<svg version="1.1" id="Layer_1" xmlns="http://www.w3.org/2000/svg" xmlns:xlink="http://www.w3.org/1999/xlink" x="0px" y="0px"
	 viewBox="0 0 51.5 41.6" style="enable-background:new 0 0 51.5 41.6;" xml:space="preserve">
<style type="text/css">
	.st0{fill:#F2EEF3;}
	.st1{fill:#DDDCE6;}
	.st2{clip-path:url(#XMLID_2_);fill:#C6C6CF;}
	.st3{clip-path:url(#XMLID_2_);fill:#3E322E;}
	.st4{clip-path:url(#XMLID_2_);fill:#A5918C;}
	.st5{fill:#846963;}
	.st6{fill:#BCDBFD;}
	.st7{fill:#E0F4FE;}
	.st8{fill:#59C36A;}
	.st9{fill:#00A66C;}
	.st10{fill:#97DE3D;}
	.st11{fill:#FF9100;}
</style>
<g>
	<g id="XMLID_4_">
		<g id="XMLID_27_">
			<path id="XMLID_175_" class="st0" d="M20.3,6.3C20,5.9,19.5,5.6,19,5.6c-0.5,0-1.1,0.2-1.3,0.7l-5.8,11.3l2.8,2.4h8.7l2.8-2.4
				L20.3,6.3z M20.3,6.3"/>
			<path id="XMLID_155_" class="st1" d="M26.1,17.7L20.3,6.3C20,5.9,19.5,5.6,19,5.6V20h4.4L26.1,17.7z M26.1,17.7"/>
			<g id="XMLID_140_">
				<defs>
					<rect id="XMLID_143_" y="0.8" width="49.5" height="40.8"/>
				</defs>
				<clipPath id="XMLID_2_">
					<use xlink:href="#XMLID_143_"  style="overflow:visible;"/>
				</clipPath>
				<path id="XMLID_151_" class="st2" d="M34.8,15.9c-0.5-0.8-2.1-0.8-2.6,0l-3.7,6.2l0.5,2.7l5.4,2.4l5.9-2.4L34.8,15.9z
					 M34.8,15.9"/>
				<path id="XMLID_148_" class="st3" d="M38.6,41.6h9.5c0.5,0,1-0.2,1.2-0.6c0.3-0.4,0.3-0.8,0.1-1.2l-9.2-15.1H28.9l2.6,14.4
					L38.6,41.6z M38.6,41.6"/>
				<path id="XMLID_144_" class="st4" d="M28.4,22.1l-2.3-4.4H11.8L0.1,40c-0.2,0.4-0.1,0.8,0.1,1.1c0.3,0.3,0.7,0.5,1.2,0.5h13.2
					l1.5-2.4l1.5,2.4h21.1L28.4,22.1z M28.4,22.1"/>
			</g>
			<path id="XMLID_137_" class="st5" d="M38.6,41.6L28.4,22.1l-2.3-4.4H19v24H38.6z M38.6,41.6"/>
			<path id="XMLID_133_" class="st6" d="M46.6,2.9h-5.9c0-1.6-1.3-2.9-2.9-2.9h-8.7c-1.6,0-2.9,1.3-2.9,2.9c0,1.6,1.3,2.9,2.9,2.9
				H32c0,1.6,1.3,2.9,2.9,2.9h11.7c1.6,0,2.9-1.3,2.9-2.9C49.5,4.2,48.2,2.9,46.6,2.9L46.6,2.9z M46.6,2.9"/>
			<path id="XMLID_111_" class="st7" d="M17.5,9.6h-2.9c0-1.6-1.3-2.9-2.9-2.9H2.9C1.3,6.7,0,8,0,9.6s1.3,2.9,2.9,2.9h3
				c0,1.6,1.3,2.9,2.9,2.9h8.7c1.6,0,2.9-1.3,2.9-2.9S19.1,9.6,17.5,9.6L17.5,9.6z M17.5,9.6"/>
			<path id="XMLID_99_" class="st8" d="M16.1,34.4h-1.5v7.3h2.9v-7.3H16.1z M16.1,34.4"/>
			<rect id="XMLID_97_" x="16.1" y="34.4" class="st9" width="1.5" height="7.3"/>
			<path id="XMLID_74_" class="st10" d="M23.1,35.1l-5.8-9.6c-0.2-0.4-0.8-0.6-1.3-0.6c-0.5,0-1.1,0.2-1.3,0.6L9,35.1
				c-0.2,0.4-0.2,0.8,0.1,1.2c0.3,0.4,0.7,0.6,1.2,0.6h11.6c0.5,0,1-0.2,1.2-0.6C23.4,35.9,23.4,35.4,23.1,35.1L23.1,35.1z
				 M23.1,35.1"/>
			<path id="XMLID_57_" class="st8" d="M23.3,36.1c0.3-0.4,0.3-0.8,0-1.2l-6.2-9.4c-0.3-0.4-0.8-0.6-1.3-0.6l0.4,11.9l5.8-0.1
				C22.6,36.7,23,36.5,23.3,36.1L23.3,36.1z M23.3,36.1"/>
		</g>
	</g>
	<path id="XMLID_549_" class="st11" d="M50.5,27.1c0.1-0.3,0.3-0.4,0.6-0.4c0.3,0.1,0.4,0.3,0.4,0.6l-0.9,4c0,0.1-0.1,0.2-0.2,0.3
		c-0.1,0.1-0.3,0.1-0.4,0.1l-4-0.9c-0.3-0.1-0.4-0.3-0.4-0.6c0.1-0.3,0.3-0.4,0.6-0.4l2.9,0.7l-6.1-9.6c-0.1-0.2-0.1-0.5,0.2-0.7
		c0.2-0.1,0.5-0.1,0.7,0.2l6.1,9.6L50.5,27.1z"/>
</g>
</svg>
