<?xml version="1.0" encoding="utf-8"?>
<!-- Generator: Adobe Illustrator 21.0.2, SVG Export Plug-In . SVG Version: 6.00 Build 0)  -->
<svg version="1.1" id="Layer_1" xmlns="http://www.w3.org/2000/svg" xmlns:xlink="http://www.w3.org/1999/xlink" x="0px" y="0px"
	 viewBox="0 0 185.8 40.4" style="enable-background:new 0 0 185.8 40.4;" xml:space="preserve">
<style type="text/css">
	.st0{fill:url(#XMLID_2_);}
	.st1{fill:#FFAE46;}
	.st2{fill:#FF428D;}
	.st3{fill:url(#XMLID_3_);}
	.st4{fill:url(#XMLID_4_);}
	.st5{fill:url(#XMLID_5_);}
	.st6{fill:url(#XMLID_6_);}
	.st7{fill:#353535;}
	.st8{fill:url(#XMLID_7_);}
</style>
<g id="XMLID_19_">
	<g id="XMLID_24_">
		<linearGradient id="XMLID_2_" gradientUnits="userSpaceOnUse" x1="1.366568e-04" y1="10.4471" x2="45.4223" y2="10.4471">
			<stop  offset="0" style="stop-color:#FFAE46"/>
			<stop  offset="0.1898" style="stop-color:#FF9755"/>
			<stop  offset="0.7388" style="stop-color:#FF5A7D"/>
			<stop  offset="1" style="stop-color:#FF428D"/>
		</linearGradient>
		<path id="XMLID_302_" class="st0" d="M40.1,7l-3.9,3.4l-2.4-3.2l-2.8,2L23.5,0l-7,10l-6.1-6L0,20.9c27.8,0,45.4,0,45.4,0L40.1,7z
			 M8.9,11.3l-2.1,4l-2.4,0.9l6-9.9l0.2,7.2L8.9,11.3z M22.5,8.5L22,13.2l-1.4-1.4l-4.7,2.4l7.7-12.3l0.1,7.6L22.5,8.5z M39.4,12.7
			l-0.6-1l-0.6,3.6l-1.4-1.9l-2.5,0.7l5.1-5.4L39.4,12.7z"/>
		<path id="XMLID_693_" class="st1" d="M8.6,30.3H4.7c-0.6,0-1.1-0.5-1.1-1.1v0c0-0.6,0.5-1.1,1.1-1.1h3.9c0.6,0,1.1,0.5,1.1,1.1v0
			C9.7,29.8,9.2,30.3,8.6,30.3z"/>
		<path id="XMLID_692_" class="st2" d="M40.6,30.3h-3.9c-0.6,0-1.1-0.5-1.1-1.1v0c0-0.6,0.5-1.1,1.1-1.1h3.9c0.6,0,1.1,0.5,1.1,1.1
			v0C41.7,29.8,41.2,30.3,40.6,30.3z"/>
		<linearGradient id="XMLID_3_" gradientUnits="userSpaceOnUse" x1="0" y1="24.7029" x2="45.4221" y2="24.7029">
			<stop  offset="0" style="stop-color:#FFAE46"/>
			<stop  offset="0.1898" style="stop-color:#FF9755"/>
			<stop  offset="0.7388" style="stop-color:#FF5A7D"/>
			<stop  offset="1" style="stop-color:#FF428D"/>
		</linearGradient>
		<path id="XMLID_681_" class="st3" d="M44.3,25.8H1.1c-0.6,0-1.1-0.5-1.1-1.1v0c0-0.6,0.5-1.1,1.1-1.1h43.2c0.6,0,1.1,0.5,1.1,1.1
			v0C45.4,25.3,44.9,25.8,44.3,25.8z"/>
		<linearGradient id="XMLID_4_" gradientUnits="userSpaceOnUse" x1="15.8155" y1="34.4208" x2="29.6069" y2="34.4208">
			<stop  offset="0" style="stop-color:#FFAE46"/>
			<stop  offset="0.1898" style="stop-color:#FF9755"/>
			<stop  offset="0.7388" style="stop-color:#FF5A7D"/>
			<stop  offset="1" style="stop-color:#FF428D"/>
		</linearGradient>
		<path id="XMLID_679_" class="st4" d="M28.5,35.5H16.9c-0.6,0-1.1-0.5-1.1-1.1v0c0-0.6,0.5-1.1,1.1-1.1h11.6c0.6,0,1.1,0.5,1.1,1.1
			v0C29.6,35,29.1,35.5,28.5,35.5z"/>
		<linearGradient id="XMLID_5_" gradientUnits="userSpaceOnUse" x1="1.1183" y1="28.0721" x2="44.3379" y2="28.0721">
			<stop  offset="0" style="stop-color:#FFAE46"/>
			<stop  offset="0.1898" style="stop-color:#FF9755"/>
			<stop  offset="0.7388" style="stop-color:#FF5A7D"/>
			<stop  offset="1" style="stop-color:#FF428D"/>
		</linearGradient>
		<path id="XMLID_677_" class="st5" d="M1.1,25.8H18c0.6,0,1.1,0.3,1.1,1c0,0.7-0.5,1-1.1,1h-3.9c-0.6,0-1.1,0.6-1.1,1.2
			c0,0.6,0.5,1.2,1.1,1.2h17.1c0.6,0,1.1-0.6,1.1-1.2c0-0.6-0.5-1.2-1.1-1.2h-4c-0.6,0-1.1-0.3-1.1-1c0-0.7,0.5-1,1.1-1h17.1"/>
		<linearGradient id="XMLID_6_" gradientUnits="userSpaceOnUse" x1="19.6944" y1="39.2795" x2="25.7281" y2="39.2795">
			<stop  offset="0" style="stop-color:#FFAE46"/>
			<stop  offset="0.1898" style="stop-color:#FF9755"/>
			<stop  offset="0.7388" style="stop-color:#FF5A7D"/>
			<stop  offset="1" style="stop-color:#FF428D"/>
		</linearGradient>
		<path id="XMLID_676_" class="st6" d="M24.6,40.4h-3.8c-0.6,0-1.1-0.5-1.1-1.1v0c0-0.6,0.5-1.1,1.1-1.1h3.8c0.6,0,1.1,0.5,1.1,1.1
			v0C25.7,39.9,25.2,40.4,24.6,40.4z"/>
	</g>
	<g id="XMLID_25_">
		<path id="XMLID_27_" class="st7" d="M76.1,32.2l-3.2-10.4l-3.1,10.4H64l-5-16.8h5.5l2.7,10.3l3.3-10.3h4.8l3.3,10.3l2.7-10.3h5.5
			l-5,16.8H76.1z"/>
		<path id="XMLID_28_" class="st7" d="M87.5,23.8c0-4.9,3.7-8.8,8.9-8.8c5,0,8.6,3.7,8.6,9.4v1.1H93c0.3,1.6,1.8,3,4.2,3
			c1.2,0,3.2-0.5,4.2-1.4l2.3,3.3c-1.7,1.5-4.5,2.2-7,2.2C91.5,32.6,87.5,29.3,87.5,23.8z M96.4,19.1c-2.3,0-3.2,1.7-3.4,2.9h6.9
			C99.7,20.8,98.9,19.1,96.4,19.1z"/>
		<path id="XMLID_29_" class="st7" d="M117.7,27.7v-7.6h-2.8v-4.7h2.8v-4.6h5.3v4.6h3.4v4.7H123v6.1c0,1,0.6,1.7,1.5,1.7
			c0.6,0,1.2-0.2,1.4-0.4l1,4c-0.7,0.6-2,1.1-4,1.1C119.5,32.6,117.7,30.9,117.7,27.7z"/>
		<path id="XMLID_31_" class="st7" d="M129.1,32.2V15.4h5.4v2.1c1.1-1.4,3.2-2.5,5.3-2.5v5.1c-0.3-0.1-0.8-0.1-1.3-0.1
			c-1.4,0-3.2,0.6-3.9,1.5v10.7H129.1z"/>
		<path id="XMLID_33_" class="st7" d="M152,32.2v-1.7c-1,1.3-3.1,2.1-5.2,2.1c-2.6,0-5.8-1.7-5.8-5.5c0-4.1,3.2-5.4,5.8-5.4
			c2.2,0,4.2,0.7,5.2,1.9v-2c0-1.5-1.3-2.4-3.4-2.4c-1.7,0-3.4,0.6-4.8,1.8l-1.9-3.4c2.2-1.8,5-2.6,7.6-2.6c4,0,7.8,1.5,7.8,6.7
			v10.5H152z M152,27.9v-1.5c-0.6-0.8-1.8-1.2-3-1.2c-1.4,0-2.7,0.6-2.7,1.9c0,1.3,1.3,1.9,2.7,1.9C150.2,29.1,151.5,28.7,152,27.9z
			"/>
		<path id="XMLID_39_" class="st7" d="M160.9,10.8c0-1.7,1.4-3.1,3.1-3.1c1.7,0,3.1,1.4,3.1,3.1c0,1.7-1.4,3.1-3.1,3.1
			C162.3,13.9,160.9,12.5,160.9,10.8z M161.3,32.2V15.4h5.4v16.8H161.3z"/>
		<path id="XMLID_40_" class="st7" d="M170.5,32.2V9h5.4v23.2H170.5z"/>
		<linearGradient id="XMLID_7_" gradientUnits="userSpaceOnUse" x1="179.2326" y1="29.3666" x2="185.7735" y2="29.3666">
			<stop  offset="0" style="stop-color:#FFAE46"/>
			<stop  offset="0.1898" style="stop-color:#FF9755"/>
			<stop  offset="0.7388" style="stop-color:#FF5A7D"/>
			<stop  offset="1" style="stop-color:#FF428D"/>
		</linearGradient>
		<path id="XMLID_43_" class="st8" d="M179.2,29.4c0-1.8,1.5-3.3,3.3-3.3c1.8,0,3.3,1.5,3.3,3.3c0,1.8-1.5,3.3-3.3,3.3
			C180.7,32.6,179.2,31.1,179.2,29.4z"/>
	</g>
</g>
</svg>
