<?xml version="1.0" encoding="utf-8"?>
<!-- Generator: Adobe Illustrator 21.0.2, SVG Export Plug-In . SVG Version: 6.00 Build 0)  -->
<svg version="1.1" id="Layer_1" xmlns="http://www.w3.org/2000/svg" xmlns:xlink="http://www.w3.org/1999/xlink" x="0px" y="0px"
	 viewBox="0 0 41.7 41.7" style="enable-background:new 0 0 41.7 41.7;" xml:space="preserve">
<style type="text/css">
	.st0{fill:#6D6D6D;}
	.st1{clip-path:url(#XMLID_2_);fill:#6D6D6D;}
	.st2{clip-path:url(#XMLID_2_);fill:#FF428D;}
	.st3{fill:#FF9100;}
</style>
<g id="XMLID_21_">
	<path id="XMLID_365_" class="st0" d="M24.3,16.7h1.4c0.4,0,0.7-0.3,0.7-0.7c0-0.4-0.3-0.7-0.7-0.7h-1.4c-0.4,0-0.7,0.3-0.7,0.7
		C23.6,16.4,23.9,16.7,24.3,16.7L24.3,16.7z M24.3,16.7"/>
	<path id="XMLID_362_" class="st0" d="M21.9,21.6c-0.3,0-0.6-0.1-0.9-0.2c-0.4-0.1-0.8,0-0.9,0.4c-0.1,0.4,0,0.8,0.4,0.9
		c0.4,0.2,0.9,0.3,1.4,0.3h0.2c0.4,0,0.7-0.3,0.7-0.7c0-0.4-0.3-0.7-0.7-0.7H21.9z M21.9,21.6"/>
	<path id="XMLID_359_" class="st0" d="M20.2,17.2c0.1,0,0.3,0,0.4-0.1c0.3-0.2,0.6-0.3,1-0.3c0.4,0,0.7-0.4,0.6-0.8
		c0-0.4-0.4-0.7-0.8-0.6c-0.6,0.1-1.1,0.2-1.6,0.6c-0.3,0.2-0.4,0.6-0.2,1C19.8,17,20,17.2,20.2,17.2L20.2,17.2z M20.2,17.2"/>
	<path id="XMLID_355_" class="st0" d="M24.7,27.8c-0.1,0-0.1,0-0.2,0c-0.4,0-0.7,0.3-0.7,0.7c0,0.4,0.3,0.7,0.7,0.7c0,0,0,0,0,0h1.4
		c0.4,0,0.7-0.3,0.7-0.7c0-0.4-0.3-0.7-0.7-0.7H24.7z M24.7,27.8"/>
	<path id="XMLID_351_" class="st0" d="M29.9,16.7c0.4,0,0.7-0.3,0.7-0.7c0-0.4-0.3-0.7-0.7-0.7h-1.4c-0.4,0-0.7,0.3-0.7,0.7
		c0,0.4,0.3,0.7,0.7,0.7H29.9z M29.9,16.7"/>
	<path id="XMLID_348_" class="st0" d="M32.9,27.8c-0.4,0-0.7,0.3-0.7,0.7c0,0.4,0.3,0.7,0.7,0.7h1.4c0.4,0,0.7-0.3,0.7-0.7
		c0-0.4-0.3-0.7-0.7-0.7H32.9z M32.9,27.8"/>
	<path id="XMLID_345_" class="st0" d="M35.4,22.3c0-0.4-0.3-0.7-0.7-0.7h-1.4c-0.4,0-0.7,0.3-0.7,0.7c0,0.4,0.3,0.7,0.7,0.7h1.4
		C35,22.9,35.4,22.6,35.4,22.3L35.4,22.3z M35.4,22.3"/>
	<path id="XMLID_342_" class="st0" d="M28.7,29.2h1.4c0.4,0,0.7-0.3,0.7-0.7c0-0.4-0.3-0.7-0.7-0.7h-1.4c-0.4,0-0.7,0.3-0.7,0.7
		C28,28.9,28.3,29.2,28.7,29.2L28.7,29.2z M28.7,29.2"/>
	<path id="XMLID_339_" class="st0" d="M31.2,22.3c0-0.4-0.3-0.7-0.7-0.7h-1.4c-0.4,0-0.7,0.3-0.7,0.7c0,0.4,0.3,0.7,0.7,0.7h1.4
		C30.9,22.9,31.2,22.6,31.2,22.3L31.2,22.3z M31.2,22.3"/>
	<path id="XMLID_336_" class="st0" d="M24.9,21.6c-0.4,0-0.7,0.3-0.7,0.7c0,0.4,0.3,0.7,0.7,0.7h1.4c0.4,0,0.7-0.3,0.7-0.7
		c0-0.4-0.3-0.7-0.7-0.7H24.9z M24.9,21.6"/>
	<path id="XMLID_333_" class="st0" d="M16.4,40.3H15c-0.4,0-0.7,0.3-0.7,0.7c0,0.4,0.3,0.7,0.7,0.7h1.4c0.4,0,0.7-0.3,0.7-0.7
		C17.1,40.6,16.8,40.3,16.4,40.3L16.4,40.3z M16.4,40.3"/>
	<path id="XMLID_329_" class="st0" d="M36.2,37.9c-0.4-0.1-0.7,0.2-0.8,0.5c-0.1,0.4-0.2,0.7-0.5,1c-0.2,0.3-0.2,0.7,0.1,1
		c0.1,0.1,0.3,0.1,0.4,0.1c0.2,0,0.4-0.1,0.5-0.3c0.4-0.4,0.6-1,0.7-1.5C36.8,38.4,36.6,38,36.2,37.9L36.2,37.9z M36.2,37.9"/>
	<path id="XMLID_326_" class="st0" d="M35.5,36.7c0.1,0,0.3,0,0.4-0.1c0.3-0.2,0.4-0.7,0.1-1c-0.3-0.4-0.8-0.8-1.3-1.1
		c-0.3-0.2-0.8,0-0.9,0.3c-0.2,0.3,0,0.8,0.3,0.9c0.3,0.2,0.6,0.4,0.8,0.7C35.1,36.6,35.3,36.7,35.5,36.7L35.5,36.7z M35.5,36.7"/>
	<path id="XMLID_323_" class="st0" d="M32.4,34.8c0-0.4-0.3-0.7-0.7-0.7h-1.4c-0.4,0-0.7,0.3-0.7,0.7c0,0.4,0.3,0.7,0.7,0.7h1.4
		C32.1,35.5,32.4,35.2,32.4,34.8L32.4,34.8z M32.4,34.8"/>
	<path id="XMLID_320_" class="st0" d="M33,40.3h-1.3c-0.4,0-0.7,0.3-0.7,0.7c0,0.4,0.3,0.7,0.7,0.7h1.4l0-0.7v0.7
		c0.4,0,0.7-0.3,0.7-0.7C33.7,40.6,33.4,40.3,33,40.3L33,40.3z M33,40.3"/>
	<path id="XMLID_315_" class="st0" d="M41,24.8c-0.1-0.4-0.4-0.6-0.8-0.6c-0.4,0.1-0.6,0.4-0.6,0.8c0,0.1,0,0.3,0,0.4
		c0,0.2,0,0.5-0.1,0.7c-0.1,0.4,0.1,0.8,0.5,0.9c0.1,0,0.1,0,0.2,0c0.3,0,0.6-0.2,0.7-0.5c0.1-0.3,0.2-0.7,0.2-1.1
		C41,25.2,41,25,41,24.8L41,24.8z M41,24.8"/>
	<path id="XMLID_312_" class="st0" d="M19.1,20.8c0.4-0.1,0.6-0.5,0.4-0.9c-0.1-0.2-0.1-0.5-0.1-0.8c0-0.1,0-0.2,0-0.3
		c0-0.4-0.2-0.7-0.6-0.8c-0.4,0-0.7,0.2-0.8,0.6c0,0.2,0,0.3,0,0.5c0,0.4,0.1,0.8,0.2,1.2c0.1,0.3,0.4,0.5,0.7,0.5
		C19,20.8,19.1,20.8,19.1,20.8L19.1,20.8z M19.1,20.8"/>
	<path id="XMLID_309_" class="st0" d="M39.1,22.1c-0.5-0.3-1-0.5-1.6-0.5c-0.4,0-0.7,0.3-0.7,0.6c0,0.4,0.3,0.7,0.6,0.7
		c0.4,0,0.7,0.1,1,0.3c0.1,0.1,0.2,0.1,0.3,0.1c0.2,0,0.5-0.1,0.6-0.3C39.6,22.7,39.4,22.3,39.1,22.1L39.1,22.1z M39.1,22.1"/>
	<path id="XMLID_306_" class="st0" d="M38.1,27.6c-0.3,0.1-0.6,0.2-0.9,0.2H37c-0.4,0-0.7,0.3-0.7,0.7c0,0.4,0.3,0.7,0.7,0.7h0.1
		c0.5,0,1-0.1,1.5-0.3c0.4-0.1,0.5-0.6,0.4-0.9C38.9,27.6,38.5,27.5,38.1,27.6L38.1,27.6z M38.1,27.6"/>
	<path id="XMLID_303_" class="st0" d="M22.3,31.2c0.1-0.4,0.2-0.7,0.4-1c0.2-0.3,0.2-0.7-0.1-1c-0.3-0.2-0.7-0.2-1,0.1
		c-0.3,0.5-0.6,1-0.7,1.5c-0.1,0.4,0.2,0.7,0.6,0.8c0,0,0.1,0,0.1,0C21.9,31.7,22.2,31.5,22.3,31.2L22.3,31.2z M22.3,31.2"/>
	<path id="XMLID_282_" class="st0" d="M23.4,35.2c0.3,0,0.5-0.2,0.6-0.4c0.2-0.4,0-0.8-0.3-0.9c-0.3-0.1-0.6-0.4-0.9-0.7
		c-0.2-0.3-0.7-0.3-1-0.1c-0.3,0.2-0.3,0.7-0.1,1c0.4,0.4,0.8,0.8,1.3,1C23.2,35.2,23.3,35.2,23.4,35.2L23.4,35.2z M23.4,35.2"/>
	<path id="XMLID_279_" class="st0" d="M20.6,40.3h-1.4c-0.4,0-0.7,0.3-0.7,0.7c0,0.4,0.3,0.7,0.7,0.7h1.4c0.4,0,0.7-0.3,0.7-0.7
		C21.3,40.6,20.9,40.3,20.6,40.3L20.6,40.3z M20.6,40.3"/>
	<path id="XMLID_276_" class="st0" d="M24.7,40.3h-1.4c-0.4,0-0.7,0.3-0.7,0.7c0,0.4,0.3,0.7,0.7,0.7h1.4c0.4,0,0.7-0.3,0.7-0.7
		C25.4,40.6,25.1,40.3,24.7,40.3L24.7,40.3z M24.7,40.3"/>
	<path id="XMLID_270_" class="st0" d="M28.2,34.8c0-0.4-0.3-0.7-0.7-0.7h-1.4c-0.4,0-0.7,0.3-0.7,0.7c0,0.4,0.3,0.7,0.7,0.7h1.4
		C27.9,35.5,28.2,35.2,28.2,34.8L28.2,34.8z M28.2,34.8"/>
	<g id="XMLID_223_">
		<defs>
			<rect id="XMLID_224_" width="41.7" height="41.7"/>
		</defs>
		<clipPath id="XMLID_2_">
			<use xlink:href="#XMLID_224_"  style="overflow:visible;"/>
		</clipPath>
		<path id="XMLID_235_" class="st1" d="M28.9,40.3h-1.4c-0.4,0-0.7,0.3-0.7,0.7c0,0.4,0.3,0.7,0.7,0.7h1.4c0.4,0,0.7-0.3,0.7-0.7
			C29.6,40.6,29.3,40.3,28.9,40.3L28.9,40.3z M28.9,40.3"/>
		<path id="XMLID_225_" class="st2" d="M14.3,20.2c-1.6-1.8-3.7-2.8-5.9-2.8c-2.2,0-4.4,1-5.9,2.8c-3.2,3.6-3.2,9.5,0,13.1L8.3,40
			l5.9-6.7C17.5,29.7,17.5,23.8,14.3,20.2L14.3,20.2z M8.3,29.9c-2.3,0-4.2-1.9-4.2-4.2c0-2.3,1.9-4.2,4.2-4.2
			c2.3,0,4.2,1.9,4.2,4.2C12.5,28,10.6,29.9,8.3,29.9L8.3,29.9z M8.3,29.9"/>
	</g>
	<path id="XMLID_212_" class="st3" d="M33.6,17L38,12c2.4-2.7,2.4-7.2,0-9.9C36.8,0.7,35.3,0,33.5,0c-1.7,0-3.3,0.7-4.5,2.1
		c-2.4,2.7-2.4,7.2,0,9.9L33.6,17z M33.7,2.8c2.1,0,3.8,1.7,3.8,3.8c0,2.1-1.7,3.8-3.8,3.8c-2.1,0-3.8-1.7-3.8-3.8
		C29.9,4.5,31.6,2.8,33.7,2.8L33.7,2.8z M33.7,2.8"/>
</g>
</svg>
