<?xml version="1.0" encoding="utf-8"?>
<!-- Generator: Adobe Illustrator 21.0.2, SVG Export Plug-In . SVG Version: 6.00 Build 0)  -->
<svg version="1.1" id="Layer_1" xmlns="http://www.w3.org/2000/svg" xmlns:xlink="http://www.w3.org/1999/xlink" x="0px" y="0px"
	 viewBox="0 0 33.3 37.6" style="enable-background:new 0 0 33.3 37.6;" xml:space="preserve">
<style type="text/css">
	.st0{fill:url(#XMLID_2_);}
	.st1{fill:url(#XMLID_3_);}
</style>
<g id="XMLID_166_">
	<linearGradient id="XMLID_2_" gradientUnits="userSpaceOnUse" x1="0" y1="18.7815" x2="33.2654" y2="18.7815">
		<stop  offset="0" style="stop-color:#FFAE46"/>
		<stop  offset="0.1898" style="stop-color:#FF9755"/>
		<stop  offset="0.7388" style="stop-color:#FF5A7D"/>
		<stop  offset="1" style="stop-color:#FF428D"/>
	</linearGradient>
	<path id="XMLID_197_" class="st0" d="M31.2,13.4h-0.9V9.1c0,0,0-0.1,0-0.1c0-0.2-0.1-0.3-0.2-0.5l-7.2-8.3c0,0,0,0,0,0
		c0,0-0.1-0.1-0.1-0.1c0,0,0,0,0,0c0,0-0.1,0-0.1-0.1c0,0,0,0,0,0c-0.1,0-0.1,0-0.2,0H4.5C3.7,0,3,0.7,3,1.5v12H2.1
		c-1.2,0-2.1,0.9-2.1,2.1v10.9c0,1.2,0.9,2.1,2.1,2.1H3v7.5c0,0.8,0.7,1.5,1.5,1.5h24.3c0.8,0,1.5-0.7,1.5-1.5v-7.5h0.9
		c1.2,0,2.1-0.9,2.1-2.1V15.5C33.3,14.4,32.3,13.4,31.2,13.4L31.2,13.4z M4.5,1.5h17.1V9c0,0.4,0.3,0.7,0.7,0.7h6.5v3.7H4.5V1.5z
		 M20.8,18.6c0,0.9-0.3,1.7-0.9,2.3c-0.7,0.7-1.8,1-3.1,1c-0.3,0-0.5,0-0.7,0v3.4H14v-9.4c0.7-0.1,1.6-0.2,2.9-0.2
		c1.3,0,2.3,0.3,2.9,0.8C20.4,16.9,20.8,17.7,20.8,18.6L20.8,18.6z M3.9,20.6c0-3.2,2.3-5,5.4-5c1.2,0,2.2,0.2,2.6,0.5l-0.5,1.7
		c-0.5-0.2-1.2-0.4-2.2-0.4c-1.8,0-3.1,1-3.1,3.1c0,2,1.2,3.1,3,3.1c0.5,0,0.9-0.1,1.1-0.1v-2H8.8v-1.7h3.5v5
		c-0.7,0.2-1.9,0.5-3.2,0.5c-1.7,0-3-0.4-3.9-1.3C4.4,23.2,3.9,22,3.9,20.6L3.9,20.6z M28.8,35.7H4.5v-7.1h24.3V35.7z M26.8,25.3
		L26,23.5c-0.4-0.7-0.6-1.2-0.8-1.7h0c-0.2,0.6-0.4,1-0.7,1.7l-0.8,1.7h-2.5l2.8-4.8l-2.7-4.7h2.5l0.8,1.7c0.3,0.6,0.5,1,0.7,1.6h0
		c0.2-0.6,0.4-1,0.6-1.6l0.8-1.7h2.5l-2.7,4.6l2.8,4.9H26.8z M26.8,25.3"/>
	<linearGradient id="XMLID_3_" gradientUnits="userSpaceOnUse" x1="16.1434" y1="18.7663" x2="18.7129" y2="18.7663">
		<stop  offset="0" style="stop-color:#FFAE46"/>
		<stop  offset="0.1898" style="stop-color:#FF9755"/>
		<stop  offset="0.7388" style="stop-color:#FF5A7D"/>
		<stop  offset="1" style="stop-color:#FF428D"/>
	</linearGradient>
	<path id="XMLID_176_" class="st1" d="M17,17.3c-0.4,0-0.7,0-0.9,0.1v2.8c0.2,0,0.4,0.1,0.7,0.1c1.1,0,1.8-0.6,1.8-1.6
		C18.7,17.8,18.1,17.3,17,17.3L17,17.3z M17,17.3"/>
</g>
</svg>
