<?xml version="1.0" encoding="utf-8"?>
<!-- Generator: Adobe Illustrator 21.0.2, SVG Export Plug-In . SVG Version: 6.00 Build 0)  -->
<svg version="1.1" id="Layer_1" xmlns="http://www.w3.org/2000/svg" xmlns:xlink="http://www.w3.org/1999/xlink" x="0px" y="0px"
	 viewBox="0 0 50.9 29.1" style="enable-background:new 0 0 50.9 29.1;" xml:space="preserve">
<style type="text/css">
	.st0{clip-path:url(#XMLID_2_);fill:url(#XMLID_3_);}
	.st1{clip-path:url(#XMLID_2_);fill:#4D5D7A;}
	.st2{fill:#FFAE46;}
	.st3{fill:#4D5D7A;}
	.st4{fill:#CCCCCC;}
	.st5{clip-path:url(#XMLID_4_);fill:#FFAE46;}
	.st6{clip-path:url(#XMLID_4_);fill:#CCCCCC;}
</style>
<g id="XMLID_714_">
	<g id="XMLID_744_">
		<defs>
			
				<rect id="XMLID_746_" x="11.1" y="-10.8" transform="matrix(6.425592e-03 -1 1 6.425592e-03 10.7603 39.9099)" width="28.8" height="50.7"/>
		</defs>
		<clipPath id="XMLID_2_">
			<use xlink:href="#XMLID_746_"  style="overflow:visible;"/>
		</clipPath>
		
			<linearGradient id="XMLID_3_" gradientUnits="userSpaceOnUse" x1="-1062.8785" y1="9.2668" x2="-1012.1359" y2="9.2668" gradientTransform="matrix(-1 -6.425592e-03 -6.425592e-03 1 -1011.9511 -3.0845)">
			<stop  offset="0" style="stop-color:#FFAE46"/>
			<stop  offset="0.1898" style="stop-color:#FF9755"/>
			<stop  offset="0.7388" style="stop-color:#FF5A7D"/>
			<stop  offset="1" style="stop-color:#FF428D"/>
		</linearGradient>
		<path id="XMLID_751_" class="st0" d="M50.8,24c0,0.9-0.8,1.7-1.7,1.7L1.7,25.4c-0.9,0-1.7-0.8-1.7-1.7c0-3.6,0.1-12.9,0.2-17.4
			c0-1.6,1.3-2.9,2.9-2.9c1.2,0,2.3,0.8,2.7,2l0,0.1c0.6,1.8,2.3,3.1,4.3,3.1l3.3,0c1.7,0,3.2-0.9,4-2.4c0.3-0.6,0.5-1.3,0.5-2
			l0-0.9c0-1.7,1.4-3.1,3.1-3.1c0.7,0,1.4,0.3,2,0.8l2.6,2.3c5.3,4.6,12.2,7.2,19.2,7.2l0,0c3.3,0,5.9,2.7,5.9,6L50.8,24z
			 M50.8,16.4"/>
		<path id="XMLID_748_" class="st1" d="M0.2,6.3c0,2.4-0.1,6.2-0.1,9.8l7.3,0c7.3,0,14.5-2.2,20.4-6.5L28,9.5L30,6.3
			c-1.5-0.9-3-1.9-4.3-3.1L23,0.9c-0.6-0.5-1.3-0.8-2-0.8c-1.7,0-3.1,1.4-3.1,3.1l0,0.9c0,0.7-0.2,1.4-0.5,2c-0.8,1.5-2.3,2.4-4,2.4
			l-3.3,0c-1.9,0-3.6-1.2-4.3-3.1l0-0.1c-0.4-1.2-1.5-1.9-2.7-2C1.5,3.4,0.2,4.7,0.2,6.3L0.2,6.3z M0.2,6.3"/>
	</g>
	<path id="XMLID_739_" class="st2" d="M37.3,21.7c-5.4-1.8-10.2-5.1-14-9.3c-1.9,1-4,1.8-6.1,2.4c2.2,2.6,5,4.6,8.3,5.7l5,1.7
		l8.5,0.1L37.3,21.7L37.3,21.7z M37.3,21.7"/>
	<path id="XMLID_735_" class="st3" d="M1.7,25.4c-0.9,0-1.7-0.8-1.7-1.7L0,22l50.7,0.3l0,1.7c0,0.9-0.8,1.7-1.7,1.7L1.7,25.4
		L1.7,25.4z M1.7,25.4"/>
	<polyline id="XMLID_734_" class="st4" points="49.1,25.7 48.2,29.1 44.8,29 44,25.7 	"/>
	<polyline id="XMLID_732_" class="st4" points="40.6,25.6 39.7,29 36.4,29 35.5,25.6 	"/>
	<polyline id="XMLID_731_" class="st4" points="32.2,25.6 31.3,29 27.9,28.9 27.1,25.5 	"/>
	<polyline id="XMLID_729_" class="st4" points="15.2,25.5 14.4,28.8 11,28.8 10.2,25.4 	"/>
	<polyline id="XMLID_727_" class="st4" points="6.8,25.4 5.9,28.8 2.5,28.8 1.7,25.4 	"/>
	<g id="XMLID_715_">
		<defs>
			
				<rect id="XMLID_717_" x="11.1" y="-10.8" transform="matrix(6.425592e-03 -1 1 6.425592e-03 10.7603 39.9099)" width="28.8" height="50.7"/>
		</defs>
		<clipPath id="XMLID_4_">
			<use xlink:href="#XMLID_717_"  style="overflow:visible;"/>
		</clipPath>
		<path id="XMLID_723_" class="st5" d="M24.2,7.6l0.3,0.2c4.9,3.3,10.3,5.9,16,7.6l0.5-1.6c-0.6-0.2-1.2-0.4-1.7-0.6l1.5-5.2
			l-1.6-0.5l-1.5,5.1c-1.1-0.4-2.2-0.9-3.3-1.3l2.1-4.9l-1.6-0.7l-2.1,4.8c-1.3-0.6-2.5-1.3-3.7-2l3.1-4.6l-1.4-0.9l-3.2,4.7
			c-0.7-0.5-1.5-0.9-2.2-1.4l-0.3-0.2L24.2,7.6z M25.1,6.2"/>
		<path id="XMLID_718_" class="st6" d="M0.2,6.5c2.4,3.2,7.1,5.3,12.6,5.4c6.8,0,12.5-3.2,14-7.7c-0.4-0.3-0.8-0.6-1.1-0.9L23,0.9
			c-0.6-0.5-1.3-0.8-2-0.8c-1.7,0-3.1,1.4-3.1,3.1l0,0.9c0,0.7-0.2,1.4-0.5,2c-0.8,1.5-2.3,2.4-4,2.4l-3.3,0c-1.9,0-3.6-1.2-4.3-3.1
			l0-0.1c-0.4-1.2-1.5-1.9-2.7-2c-1.6,0-2.9,1.3-2.9,2.9C0.2,6.3,0.2,6.4,0.2,6.5L0.2,6.5z M0.2,6.5"/>
	</g>
</g>
</svg>
