<?xml version="1.0" encoding="utf-8"?>
<!-- Generator: Adobe Illustrator 21.0.2, SVG Export Plug-In . SVG Version: 6.00 Build 0)  -->
<svg version="1.1" id="Layer_1" xmlns="http://www.w3.org/2000/svg" xmlns:xlink="http://www.w3.org/1999/xlink" x="0px" y="0px"
	 viewBox="0 0 39 32" style="enable-background:new 0 0 39 32;" xml:space="preserve">
<style type="text/css">
	.st0{clip-path:url(#SVGID_2_);fill:url(#SVGID_3_);}
	.st1{fill:#FFAE46;}
</style>
<g>
	<defs>
		<rect id="SVGID_1_" width="39" height="32"/>
	</defs>
	<clipPath id="SVGID_2_">
		<use xlink:href="#SVGID_1_"  style="overflow:visible;"/>
	</clipPath>
	<linearGradient id="SVGID_3_" gradientUnits="userSpaceOnUse" x1="0.715" y1="16" x2="39.0095" y2="16">
		<stop  offset="0" style="stop-color:#FFAE46"/>
		<stop  offset="0.1898" style="stop-color:#FF9755"/>
		<stop  offset="0.7388" style="stop-color:#FF5A7D"/>
		<stop  offset="1" style="stop-color:#FF428D"/>
	</linearGradient>
	<path class="st0" d="M31.2,3c-1.7,0-3.4,0.5-4.7,1.5c-1.2-2.7-3.9-4.5-7-4.5s-5.7,1.8-7,4.5C11.2,3.6,9.5,3,7.8,3
		c-3,0-5.7,1.7-7,4.3c-0.2,0.4,0,0.8,0.3,1c0.4,0.2,0.8,0,1-0.3c1.1-2.1,3.3-3.5,5.7-3.5c1.7,0,3.4,0.7,4.5,1.8
		c0.2,0.2,0.5,0.3,0.7,0.2c0.3-0.1,0.5-0.3,0.5-0.5c0.7-2.6,3.1-4.5,5.9-4.5s5.1,1.8,5.9,4.5c0.1,0.3,0.3,0.5,0.5,0.5
		c0.3,0.1,0.5,0,0.7-0.2c1.1-1.1,2.8-1.8,4.5-1.8c3.4,0,6.3,2.8,6.3,6.1s-2.9,6.1-6.3,6.1c-0.2,0-0.5,0-0.7,0c-0.2,0-0.4,0-0.6,0.2
		c-0.2,0.1-0.3,0.4-0.3,0.6v6.9h-4v-3.8c0-0.4-0.3-0.8-0.8-0.8c-0.4,0-0.8,0.3-0.8,0.8v3.8h-3.8v-3.8c0-0.4-0.3-0.8-0.8-0.8
		c-0.4,0-0.8,0.3-0.8,0.8v3.8h-3.8v-3.8c0-0.4-0.3-0.8-0.8-0.8c-0.4,0-0.8,0.3-0.8,0.8v3.8h-4v-6.9c0-0.2-0.1-0.4-0.3-0.6
		c-0.2-0.1-0.4-0.2-0.6-0.2c-2.6,0.3-5.2-1.1-6.4-3.4c-0.2-0.4-0.6-0.5-1-0.3c-0.4,0.2-0.5,0.6-0.3,1c1.3,2.6,4.1,4.3,7,4.3v13
		c0,0.4,0.3,0.8,0.8,0.8h21.8c0.4,0,0.8-0.3,0.8-0.8v-13c4.1,0,7.8-3.3,7.8-7.6C39,6.4,35.3,3,31.2,3L31.2,3z M9.4,30.5v-4.6h20.3
		v4.6H9.4z M9.4,30.5"/>
</g>
<path class="st1" d="M0.8,11.4c0.4,0,0.8-0.3,0.8-0.8c0-0.4-0.3-0.8-0.8-0.8C0.3,9.9,0,10.2,0,10.7C0,11.1,0.3,11.4,0.8,11.4
	L0.8,11.4z M0.8,11.4"/>
</svg>
