<?xml version="1.0" encoding="utf-8"?>
<!-- Generator: Adobe Illustrator 21.0.2, SVG Export Plug-In . SVG Version: 6.00 Build 0)  -->
<svg version="1.1" id="Layer_1" xmlns="http://www.w3.org/2000/svg" xmlns:xlink="http://www.w3.org/1999/xlink" x="0px" y="0px"
	 viewBox="0 0 53 43.1" style="enable-background:new 0 0 53 43.1;" xml:space="preserve">
<style type="text/css">
	.st0{clip-path:url(#XMLID_2_);}
</style>
<g id="XMLID_83_">
	<g id="XMLID_86_">
		<defs>
			<rect id="XMLID_32_" x="0" y="0" width="53" height="43.1"/>
		</defs>
		<clipPath id="XMLID_2_">
			<use xlink:href="#XMLID_32_"  style="overflow:visible;"/>
		</clipPath>
		<path id="XMLID_80_" class="st0" d="M51.3,25.9c1.4-5.1,1.5-10.7,0.1-15.3c-1.5-5.1-4.6-8.6-8.8-9.7c-1-0.3-2.1-0.4-3.2-0.4
			c-5.3,0-10,3.6-11.4,8.7c-1.8,6.3,1.9,12.9,8.2,14.6c2.8,0.8,5.9,0.5,8.5-0.8c-0.1,0.3-0.2,0.7-0.3,1c-2.3,8.2-6.8,12-9.3,12
			l-0.1,0c-0.5,0-0.9,0.3-1.1,0.8l-1.4,4.9c-0.1,0.3,0,0.6,0.1,0.9c0.2,0.3,0.4,0.4,0.7,0.5c0.5,0.1,1.1,0.1,1.6,0.1
			C41.6,43.1,48.5,35.8,51.3,25.9L51.3,25.9z M51.3,25.9"/>
		<path id="XMLID_79_" class="st0" d="M7.5,43.1c6.7,0,13.5-7.2,16.3-17.2c1.4-5.1,1.5-10.7,0.1-15.3c-1.5-5.1-4.6-8.6-8.8-9.7
			c-1-0.3-2.1-0.4-3.2-0.4C6.6,0.4,1.9,4,0.4,9.1C-1.3,15.4,2.4,22,8.7,23.8c2.8,0.8,5.9,0.5,8.5-0.8c-0.1,0.3-0.2,0.7-0.3,1
			c-2.3,8.2-6.8,12-9.3,12l-0.1,0c-0.5,0-0.9,0.3-1.1,0.8L5,41.6c-0.1,0.3,0,0.6,0.1,0.9c0.2,0.3,0.4,0.4,0.7,0.5
			C6.4,43,6.9,43.1,7.5,43.1L7.5,43.1z M7.5,43.1"/>
	</g>
</g>
</svg>
