<?xml version="1.0" encoding="utf-8"?>
<!-- Generator: Adobe Illustrator 21.0.2, SVG Export Plug-In . SVG Version: 6.00 Build 0)  -->
<svg version="1.1" id="Layer_1" xmlns="http://www.w3.org/2000/svg" xmlns:xlink="http://www.w3.org/1999/xlink" x="0px" y="0px"
	 viewBox="0 0 58 22.7" style="enable-background:new 0 0 58 22.7;" xml:space="preserve">
<style type="text/css">
	.st0{fill:#6D6D6D;}
	.st1{clip-path:url(#XMLID_2_);fill:#6D6D6D;}
	.st2{clip-path:url(#XMLID_2_);fill:#CCCCCC;}
	.st3{fill:#F3F348;}
	.st4{fill:url(#XMLID_3_);}
	.st5{fill:#58E092;}
	.st6{clip-path:url(#XMLID_4_);fill:#31B46C;}
	.st7{clip-path:url(#XMLID_4_);fill:#B3CEC9;}
	.st8{clip-path:url(#XMLID_5_);fill:#31B46C;}
	.st9{clip-path:url(#XMLID_5_);fill:#CAE0DD;}
</style>
<g id="XMLID_245_">
	<g id="XMLID_530_">
		<path id="XMLID_531_" class="st0" d="M2.4,22.6c0.1,0,0.1,0,0.2-0.1l1.7-1.3c0.2-0.1,0.2-0.4,0-0.5c-0.2-0.1-0.5-0.1-0.7,0
			l-0.8,0.6v-9.3l0.8,0.6c0.2,0.1,0.5,0.1,0.7,0c0.2-0.1,0.2-0.4,0-0.5L2.6,11c-0.1-0.1-0.2-0.1-0.3-0.1c-0.1,0-0.3,0-0.4,0.1
			l-1.7,1.3C0,12.4,0,12.5,0,12.6c0,0.1,0,0.2,0.1,0.3c0.2,0.1,0.5,0.1,0.7,0l0.9-0.7v9.3l-0.9-0.7c-0.2-0.1-0.5-0.1-0.7,0
			C0,20.8,0,20.9,0,21c0,0.1,0,0.2,0.1,0.3l1.7,1.3l0,0c0,0,0.1,0.1,0.2,0.1c0.1,0,0.1,0,0.2,0C2.3,22.7,2.4,22.7,2.4,22.6L2.4,22.6
			z M2.4,22.6"/>
	</g>
	<g id="XMLID_825_">
		<g id="XMLID_863_">
			<defs>
				<rect id="XMLID_803_" x="8.5" width="49.5" height="22.4"/>
			</defs>
			<clipPath id="XMLID_2_">
				<use xlink:href="#XMLID_803_"  style="overflow:visible;"/>
			</clipPath>
			<path id="XMLID_871_" class="st1" d="M58,17.6c-1,2.9-3.6,4.8-6.7,4.8H20.5c-4.2,0-8.4-1.1-12-3.2l1.6-4
				C33.1,18.3,49.2,21.1,58,17.6L58,17.6z M58,17.6"/>
			<path id="XMLID_868_" class="st2" d="M58,17.6c-1,2.9-3.6,4.8-6.7,4.8H20.5c-4.2,0-8.4-1.1-12-3.2l1.6-4c-0.5-3.1,0-6.2,1.5-9.1
				C13.3,3,13.4,2.6,14.3,2c1.3-0.8,3-0.4,3.8,0.9c1.5,2.3,1.7,2.7,2.5,3.3c1.3,0.9,3,1,4.5,0.3l3.4-1.7l-0.8-1.2
				c-0.6-0.8-0.5-1.7-0.1-2.3c0.3-0.4,0.7-1.3,1.9-1.3c0.8,0-0.7-0.7,18.2,10.3c1.6,0.9,2.9,0.9,4,0.9C55.2,11.2,58,14.1,58,17.6
				L58,17.6z M58,17.6"/>
			<path id="XMLID_865_" class="st1" d="M58,17.3c-1.3,1.9-3.5,3.1-5.8,3.1H21.3c-4.2,0-8.4-1.1-12-3.2l1.6-4
				c-0.4-2.2-0.2-4.4,0.5-6.5c0.2-0.4,0.1-0.3,1.9-3.6c1-1.9,3.7-2,4.8-0.2L19.5,5c1.2,1.8,3.6,2.5,5.6,1.5l3.4-1.7l-0.8-1.2
				l1.6-0.8c-0.9-1.4-1.1-1.6-1.2-2.2c0.4-0.4,0.9-0.6,1.4-0.6c0.8,0-0.6-0.6,18.2,10.3c1.6,0.9,2.9,0.8,3.9,0.8
				C55,11.2,57.8,13.9,58,17.3L58,17.3z M58,17.3"/>
		</g>
		<path id="XMLID_860_" class="st3" d="M40.2,12.3l-4.8,6.2c-1.2-0.1-2.5-0.3-3.7-0.4c-0.1-1.4-0.8-2.7-1.9-3.6
			c-1.4-1.1-3-2-4.7-2.6l-13.8-5c0.2-0.4,0.3-0.6,0.9-1.7C13.3,3,13.5,2.5,14.3,2c1.3-0.8,3-0.4,3.8,0.9c1.5,2.3,1.7,2.7,2.5,3.3
			c1.3,0.9,3,1,4.5,0.3l3.4-1.7C35.1,9.5,36.6,10.8,40.2,12.3L40.2,12.3z M40.2,12.3"/>
		<linearGradient id="XMLID_3_" gradientUnits="userSpaceOnUse" x1="13.0174" y1="9.0033" x2="37.1844" y2="9.0033">
			<stop  offset="0" style="stop-color:#F3F348"/>
			<stop  offset="0.2235" style="stop-color:#CCE64F"/>
			<stop  offset="0.7207" style="stop-color:#6AC761"/>
			<stop  offset="1" style="stop-color:#31B46C"/>
		</linearGradient>
		<path id="XMLID_857_" class="st4" d="M36.4,15.2c-1.4,1.8-4.3,1.4-5.1-0.7c-0.3-0.8-0.8-1.5-1.5-2c-1.4-1.1-3-2-4.7-2.6L14.4,6
			c-1.2-0.4-1.7-1.8-1.1-2.9c1-1.9,3.7-2,4.8-0.2L19.5,5c1.2,1.8,3.6,2.5,5.6,1.5l3.4-1.7c6.8,4.8,6.6,4.7,7.1,5
			C37.3,11,37.7,13.5,36.4,15.2L36.4,15.2z M36.4,15.2"/>
		<path id="XMLID_854_" class="st5" d="M58,17.6c-2.6,1.1-6.3,1.6-9.1,1.6c-4.5,0-9-0.2-13.5-0.7c1.8-2.3,0.7-0.9,4.8-6.2
			c3.3,1.4,6.9,2.1,10.6,2.1c0.9,0,1.6-0.7,1.6-1.6c0-0.9-0.7-1.6-1.6-1.6c0,0,0,0,0.8,0C55.2,11.2,58,14.1,58,17.6L58,17.6z
			 M58,17.6"/>
		<g id="XMLID_846_">
			<defs>
				<rect id="XMLID_770_" x="8.5" width="49.5" height="22.4"/>
			</defs>
			<clipPath id="XMLID_4_">
				<use xlink:href="#XMLID_770_"  style="overflow:visible;"/>
			</clipPath>
			<path id="XMLID_851_" class="st6" d="M57.7,15.7c-4.8,1.8-10.2,1.6-15.3,1.3c-2.4-0.1-3.6-2.9-2.2-4.7c3.3,1.3,6.8,2.1,10.6,2.1
				c1.4,0,2.1-1.7,1.1-2.7c-0.3-0.3-0.7-0.5-1.1-0.5v0c0.6,0,3.2-0.3,5.3,1.9C56.9,13.8,57.4,14.7,57.7,15.7L57.7,15.7z M57.7,15.7"
				/>
			<path id="XMLID_848_" class="st7" d="M52.4,12.8c0,0.9-0.7,1.6-1.6,1.6c-5.6,0-11.2-1.7-16-5.1l-6.4-4.5l-0.9-1.3
				c-0.4-0.6-0.5-1.5,0-2.2c0.3-0.5,0.5-0.8,1-1.1c0.6-0.3,1.3-0.3,1.9,0C43.9,8.1,37,4.1,44.6,8.5c3.1,1.8,4.2,2.7,6.2,2.7
				c0,0,0.1,0,0.3,0C51.9,11.4,52.4,12,52.4,12.8L52.4,12.8z M52.4,12.8"/>
		</g>
		<path id="XMLID_843_" class="st5" d="M31.6,18.1c-0.1,0,1,0.1-21.6-2.9c-0.5-2.8-0.1-5.8,1.2-8.4l13.8,5c1.7,0.6,3.3,1.5,4.7,2.6
			C30.8,15.4,31.5,16.6,31.6,18.1L31.6,18.1z M31.6,18.1"/>
		<g id="XMLID_835_">
			<defs>
				<rect id="XMLID_763_" x="8.5" width="49.5" height="22.4"/>
			</defs>
			<clipPath id="XMLID_5_">
				<use xlink:href="#XMLID_763_"  style="overflow:visible;"/>
			</clipPath>
			<path id="XMLID_840_" class="st8" d="M31,16c-1-0.1-15.9-2.1-15.9-2.1c-3.4-0.5-5.3-4.1-3.9-7l13.8,5c1.7,0.6,3.3,1.5,4.7,2.6
				C30.3,14.9,30.7,15.4,31,16L31,16z M31,16"/>
			<path id="XMLID_837_" class="st9" d="M51.1,11.2c-0.1,0.8-0.8,1.4-1.6,1.4c-5.6,0-11.2-1.7-16-5.1l-6.1-4.3
				c-0.3-0.6-0.2-1.3,0.2-1.9c0.3-0.5,0.5-0.8,1-1.1c0.6-0.3,1.3-0.3,1.9,0C43.9,8.1,37,4.1,44.6,8.5c3.1,1.8,4.2,2.7,6.2,2.7
				C50.8,11.2,50.9,11.2,51.1,11.2L51.1,11.2z M51.1,11.2"/>
		</g>
		<path id="XMLID_832_" class="st0" d="M34,6.4c-0.8,0-1.1-1-0.5-1.4l3.2-2.4c0.4-0.3,0.9-0.2,1.1,0.2c0.3,0.4,0.2,0.9-0.2,1.1
			C34.2,6.5,34.4,6.4,34,6.4L34,6.4z M34,6.4"/>
		<path id="XMLID_829_" class="st0" d="M38,8.8c-0.8,0-1.1-1-0.5-1.4L40.8,5c0.4-0.3,0.9-0.2,1.1,0.2c0.3,0.4,0.2,0.9-0.2,1.1
			C38.2,8.9,38.4,8.8,38,8.8L38,8.8z M38,8.8"/>
		<path id="XMLID_826_" class="st0" d="M42,11.2c-0.8,0-1.1-1-0.5-1.4l3.2-2.4c0.4-0.3,0.9-0.2,1.1,0.2c0.3,0.4,0.2,0.9-0.2,1.1
			C42.2,11.3,42.4,11.2,42,11.2L42,11.2z M42,11.2"/>
	</g>
</g>
</svg>
