<?xml version="1.0" encoding="utf-8"?>
<!-- Generator: Adobe Illustrator 21.0.2, SVG Export Plug-In . SVG Version: 6.00 Build 0)  -->
<svg version="1.1" id="Layer_1" xmlns="http://www.w3.org/2000/svg" xmlns:xlink="http://www.w3.org/1999/xlink" x="0px" y="0px"
	 viewBox="0 0 29.4 23.9" style="enable-background:new 0 0 29.4 23.9;" xml:space="preserve">
<style type="text/css">
	.st0{clip-path:url(#XMLID_2_);fill:#FFAE46;}
</style>
<g id="XMLID_124_">
	<g id="XMLID_136_">
		<defs>
			<rect id="XMLID_85_" width="29.4" height="23.9"/>
		</defs>
		<clipPath id="XMLID_2_">
			<use xlink:href="#XMLID_85_"  style="overflow:visible;"/>
		</clipPath>
		<path id="XMLID_193_" class="st0" d="M29.4,21.9L24.7,7.6c-0.2-0.6-0.8-1.1-1.5-1.1h-4.9C18.8,5.9,19,5.1,19,4.3
			C19,1.9,17.1,0,14.7,0s-4.3,1.9-4.3,4.3c0,0.8,0.2,1.6,0.6,2.2H6.1C5.5,6.6,4.9,7,4.7,7.6L0.1,21.9c-0.3,1,0.4,2,1.5,2h26.4
			C28.9,23.9,29.7,22.9,29.4,21.9L29.4,21.9z M12.4,4.3c0-1.3,1-2.3,2.3-2.3s2.3,1,2.3,2.3c0,1.1-0.8,2-1.8,2.2h-1
			C13.2,6.3,12.4,5.4,12.4,4.3L12.4,4.3z M12.7,18.9l-1.3-2.5h-0.6v2.5H9.2v-6.3h1.5v2.4h0.6l1.3-2.4h1.6l-1.7,3v0l1.8,3.2H12.7z
			 M20.7,18.9h-1.3v-0.2c0-0.1,0-0.3,0-0.3h0c0,0-0.6,0.5-1.6,0.5c-1.6,0-3.1-1.2-3.1-3.2c0-1.8,1.4-3.2,3.3-3.2
			c1.6,0,2.4,0.8,2.4,0.8l-0.7,1.1c0,0-0.6-0.6-1.5-0.6c-1.3,0-1.8,0.8-1.8,1.8c0,1.2,0.8,1.9,1.8,1.9c0.7,0,1.3-0.5,1.3-0.5v-0.5
			h-0.9v-1.3h2.2V18.9z M20.7,18.9"/>
	</g>
</g>
</svg>
