<?xml version="1.0" encoding="utf-8"?>
<!-- Generator: Adobe Illustrator 21.0.2, SVG Export Plug-In . SVG Version: 6.00 Build 0)  -->
<svg version="1.1" id="Layer_1" xmlns="http://www.w3.org/2000/svg" xmlns:xlink="http://www.w3.org/1999/xlink" x="0px" y="0px"
	 viewBox="0 0 30.8 35.1" style="enable-background:new 0 0 30.8 35.1;" xml:space="preserve">
<style type="text/css">
	.st0{fill:none;stroke:#606060;stroke-width:2;stroke-miterlimit:10;}
	.st1{fill:url(#SVGID_1_);}
	.st2{fill:#606060;}
	.st3{fill:url(#SVGID_2_);}
	.st4{fill:url(#SVGID_3_);}
</style>
<path class="st0" d="M29.8,19.6c0,8-6.5,14.4-14.4,14.4S1,27.5,1,19.6c0-8,6.5-14.4,14.4-14.4C23.4,5.2,29.8,11.6,29.8,19.6
	L29.8,19.6z"/>
<linearGradient id="SVGID_1_" gradientUnits="userSpaceOnUse" x1="4.7235" y1="19.6" x2="26.1235" y2="19.6">
	<stop  offset="0" style="stop-color:#FFAE46"/>
	<stop  offset="0.2065" style="stop-color:#FFAB48"/>
	<stop  offset="0.3791" style="stop-color:#FFA04F"/>
	<stop  offset="0.5395" style="stop-color:#FF8F5A"/>
	<stop  offset="0.6917" style="stop-color:#FF776A"/>
	<stop  offset="0.8279" style="stop-color:#FF5A7D"/>
	<stop  offset="1" style="stop-color:#FF428D"/>
</linearGradient>
<path class="st1" d="M15.4,8.9v10.7L4.7,19.5c0,5.9,4.8,10.8,10.7,10.8c5.9,0,10.7-4.8,10.7-10.7C26.1,13.7,21.3,8.9,15.4,8.9z"/>
<rect x="14.7" y="2" class="st2" width="1.3" height="3.3"/>
<rect x="23.6" y="6.4" transform="matrix(0.7071 -0.7071 0.7071 0.7071 2.4173 19.9207)" class="st2" width="3.3" height="1.3"/>
<linearGradient id="SVGID_2_" gradientUnits="userSpaceOnUse" x1="10.7568" y1="34" x2="20.1223" y2="34" gradientTransform="matrix(1 0 0 -1 0 35)">
	<stop  offset="0" style="stop-color:#FFAE46"/>
	<stop  offset="0.1898" style="stop-color:#FF9755"/>
	<stop  offset="0.7388" style="stop-color:#FF5A7D"/>
	<stop  offset="1" style="stop-color:#FF428D"/>
</linearGradient>
<rect x="10.7" class="st3" width="9.4" height="2"/>
<linearGradient id="SVGID_3_" gradientUnits="userSpaceOnUse" x1="-2107.979" y1="-482.7599" x2="-2098.6135" y2="-482.7599" gradientTransform="matrix(0.2286 0.2286 0.7071 -0.7071 849.0903 144.7978)">
	<stop  offset="0" style="stop-color:#FFAE46"/>
	<stop  offset="0.1898" style="stop-color:#FF9755"/>
	<stop  offset="0.7388" style="stop-color:#FF5A7D"/>
	<stop  offset="1" style="stop-color:#FF428D"/>
</linearGradient>
<polygon class="st4" points="27.4,7.2 25.2,5.1 26.7,3.7 28.8,5.8 "/>
</svg>
