<?xml version="1.0" encoding="utf-8"?>
<!-- Generator: Adobe Illustrator 21.0.2, SVG Export Plug-In . SVG Version: 6.00 Build 0)  -->
<svg version="1.1" id="Layer_1" xmlns="http://www.w3.org/2000/svg" xmlns:xlink="http://www.w3.org/1999/xlink" x="0px" y="0px"
	 viewBox="0 0 161 35" style="enable-background:new 0 0 161 35;" xml:space="preserve">
<style type="text/css">
	.st0{fill:url(#XMLID_2_);}
	.st1{fill:#FFAE46;}
	.st2{fill:#FF428D;}
	.st3{fill:url(#XMLID_3_);}
	.st4{fill:url(#XMLID_4_);}
	.st5{fill:url(#XMLID_5_);}
	.st6{fill:url(#XMLID_6_);}
	.st7{fill:#FFFFFF;}
	.st8{fill:url(#XMLID_7_);}
</style>
<g id="XMLID_32_">
	
		<linearGradient id="XMLID_2_" gradientUnits="userSpaceOnUse" x1="1.183982e-04" y1="-16356.5615" x2="39.3532" y2="-16356.5615" gradientTransform="matrix(1 0 0 -1 0 -16347.5098)">
		<stop  offset="0" style="stop-color:#FFAE46"/>
		<stop  offset="0.1898" style="stop-color:#FF9755"/>
		<stop  offset="0.7388" style="stop-color:#FF5A7D"/>
		<stop  offset="1" style="stop-color:#FF428D"/>
	</linearGradient>
	<path id="XMLID_21_" class="st0" d="M34.7,6l-3.3,3l-2.1-2.8L26.9,8l-6.5-8l-6.1,8.7L9,3.5L0,18.1c24.1,0,39.4,0,39.4,0L34.7,6z
		 M7.7,9.8L6,13.3L3.9,14l5.2-8.6l0.2,6.2L7.7,9.8z M19.5,7.3l-0.4,4.1l-1.2-1.2l-4.1,2.1l6.7-10.6l0.1,6.6L19.5,7.3z M34.2,11
		l-0.5-0.9l-0.5,3.1L32,11.6l-2.2,0.6l4.4-4.7L34.2,11z"/>
	<path id="XMLID_38_" class="st1" d="M7.4,26.2H4c-0.5,0-1-0.4-1-1v0c0-0.5,0.4-1,1-1h3.4c0.5,0,1,0.4,1,1v0
		C8.4,25.8,8,26.2,7.4,26.2z"/>
	<path id="XMLID_37_" class="st2" d="M35.2,26.2h-3.4c-0.5,0-1-0.4-1-1v0c0-0.5,0.4-1,1-1h3.4c0.5,0,1,0.4,1,1v0
		C36.2,25.8,35.7,26.2,35.2,26.2z"/>
	
		<linearGradient id="XMLID_3_" gradientUnits="userSpaceOnUse" x1="0" y1="-16368.9121" x2="39.3531" y2="-16368.9121" gradientTransform="matrix(1 0 0 -1 0 -16347.5098)">
		<stop  offset="0" style="stop-color:#FFAE46"/>
		<stop  offset="0.1898" style="stop-color:#FF9755"/>
		<stop  offset="0.7388" style="stop-color:#FF5A7D"/>
		<stop  offset="1" style="stop-color:#FF428D"/>
	</linearGradient>
	<path id="XMLID_36_" class="st3" d="M38.4,22.4H1c-0.5,0-1-0.4-1-1v0c0-0.5,0.4-1,1-1h37.4c0.5,0,1,0.4,1,1v0
		C39.4,21.9,38.9,22.4,38.4,22.4z"/>
	
		<linearGradient id="XMLID_4_" gradientUnits="userSpaceOnUse" x1="13.7024" y1="-16377.3311" x2="25.651" y2="-16377.3311" gradientTransform="matrix(1 0 0 -1 0 -16347.5098)">
		<stop  offset="0" style="stop-color:#FFAE46"/>
		<stop  offset="0.1898" style="stop-color:#FF9755"/>
		<stop  offset="0.7388" style="stop-color:#FF5A7D"/>
		<stop  offset="1" style="stop-color:#FF428D"/>
	</linearGradient>
	<path id="XMLID_35_" class="st4" d="M24.7,30.8h-10c-0.5,0-1-0.4-1-1v0c0-0.5,0.4-1,1-1h10c0.5,0,1,0.4,1,1v0
		C25.7,30.4,25.2,30.8,24.7,30.8z"/>
	
		<linearGradient id="XMLID_5_" gradientUnits="userSpaceOnUse" x1="0.9689" y1="-16371.8311" x2="38.4137" y2="-16371.8311" gradientTransform="matrix(1 0 0 -1 0 -16347.5098)">
		<stop  offset="0" style="stop-color:#FFAE46"/>
		<stop  offset="0.1898" style="stop-color:#FF9755"/>
		<stop  offset="0.7388" style="stop-color:#FF5A7D"/>
		<stop  offset="1" style="stop-color:#FF428D"/>
	</linearGradient>
	<path id="XMLID_34_" class="st5" d="M1,22.4h14.7c0.5,0,1,0.2,1,0.9c0,0.6-0.4,0.9-1,0.9h-3.4c-0.5,0-1,0.5-1,1.1
		c0,0.5,0.4,1.1,1,1.1h14.8c0.5,0,1-0.5,1-1.1c0-0.5-0.4-1.1-1-1.1h-3.5c-0.5,0-1-0.2-1-0.9c0-0.6,0.4-0.9,1-0.9h14.8"/>
	
		<linearGradient id="XMLID_6_" gradientUnits="userSpaceOnUse" x1="17.0629" y1="-16381.541" x2="22.2904" y2="-16381.541" gradientTransform="matrix(1 0 0 -1 0 -16347.5098)">
		<stop  offset="0" style="stop-color:#FFAE46"/>
		<stop  offset="0.1898" style="stop-color:#FF9755"/>
		<stop  offset="0.7388" style="stop-color:#FF5A7D"/>
		<stop  offset="1" style="stop-color:#FF428D"/>
	</linearGradient>
	<path id="XMLID_33_" class="st6" d="M21.3,35H18c-0.5,0-1-0.4-1-1l0,0c0-0.5,0.4-1,1-1h3.3c0.5,0,1,0.4,1,1l0,0
		C22.3,34.6,21.9,35,21.3,35z"/>
</g>
<path id="XMLID_30_" class="st7" d="M65.9,27.9l-2.7-9l-2.7,9h-5l-4.3-14.6h4.8l2.4,8.9l2.9-8.9h4.1l2.9,8.9l2.3-8.9h4.8l-4.3,14.6
	H65.9z"/>
<path id="XMLID_27_" class="st7" d="M75.8,20.6c0-4.2,3.2-7.6,7.7-7.6c4.3,0,7.4,3.2,7.4,8.1v1H80.6c0.3,1.4,1.5,2.6,3.6,2.6
	c1,0,2.8-0.5,3.6-1.2l2,2.9c-1.4,1.3-3.9,1.9-6.1,1.9C79.2,28.3,75.8,25.4,75.8,20.6z M83.5,16.6c-2,0-2.8,1.4-3,2.5h6
	C86.4,18.1,85.7,16.6,83.5,16.6z"/>
<path id="XMLID_25_" class="st7" d="M101.9,24v-6.6h-2.4v-4h2.4v-4h4.6v4h3v4h-3v5.3c0,0.8,0.5,1.5,1.3,1.5c0.5,0,1-0.2,1.2-0.4
	l0.9,3.5c-0.6,0.5-1.7,1-3.4,1C103.5,28.3,101.9,26.8,101.9,24z"/>
<path id="XMLID_23_" class="st7" d="M111.8,27.9V13.4h4.6v1.8c1-1.2,2.8-2.2,4.6-2.2v4.5c-0.3-0.1-0.7-0.1-1.1-0.1
	c-1.2,0-2.8,0.5-3.4,1.3v9.3H111.8z"/>
<path id="XMLID_19_" class="st7" d="M131.7,27.9v-1.4c-0.9,1.1-2.7,1.8-4.5,1.8c-2.2,0-5-1.5-5-4.8c0-3.5,2.8-4.7,5-4.7
	c1.9,0,3.6,0.6,4.5,1.7v-1.7c0-1.3-1.1-2.1-3-2.1c-1.4,0-3,0.5-4.1,1.5l-1.7-2.9c1.9-1.6,4.4-2.3,6.6-2.3c3.5,0,6.8,1.3,6.8,5.8v9.1
	H131.7z M131.7,24.2v-1.3c-0.5-0.7-1.6-1-2.6-1c-1.2,0-2.3,0.5-2.3,1.7c0,1.1,1.1,1.7,2.3,1.7C130.1,25.2,131.2,24.9,131.7,24.2z"/>
<path id="XMLID_16_" class="st7" d="M139.4,9.4c0-1.5,1.2-2.7,2.7-2.7c1.5,0,2.7,1.2,2.7,2.7c0,1.5-1.2,2.7-2.7,2.7
	C140.6,12.1,139.4,10.9,139.4,9.4z M139.7,27.9V13.4h4.6v14.6H139.7z"/>
<path id="XMLID_14_" class="st7" d="M147.7,27.9V7.8h4.6v20.1H147.7z"/>
<linearGradient id="XMLID_7_" gradientUnits="userSpaceOnUse" x1="155.2845" y1="-16372.9531" x2="160.9514" y2="-16372.9531" gradientTransform="matrix(1 0 0 -1 0 -16347.5098)">
	<stop  offset="0" style="stop-color:#FFAE46"/>
	<stop  offset="0.1898" style="stop-color:#FF9755"/>
	<stop  offset="0.7388" style="stop-color:#FF5A7D"/>
	<stop  offset="1" style="stop-color:#FF428D"/>
</linearGradient>
<path id="XMLID_12_" class="st8" d="M155.3,25.4c0-1.5,1.3-2.8,2.8-2.8s2.8,1.3,2.8,2.8s-1.3,2.8-2.8,2.8S155.3,27,155.3,25.4z"/>
</svg>
